<?xml version="1.0" encoding="UTF-8"?>
<svg width="99px" height="100px" viewBox="0 0 99 100" version="1.1" xmlns="http://www.w3.org/2000/svg" xmlns:xlink="http://www.w3.org/1999/xlink">
    <!-- Generator: Sketch 63.1 (92452) - https://sketch.com -->
    <title>Group 12</title>
    <desc>Created with Sketch.</desc>
    <defs>
        <path d="M7.75272414,0.0615384615 C2.85222414,7.73846154 0,16.8529915 0,26.6401709 L0,26.6401709 C0,36.4264957 2.85222414,45.5410256 7.75272414,53.2188034 L7.75272414,53.2188034 L11.1400603,53.2188034 L11.1400603,0.0615384615 L7.75272414,0.0615384615 Z" id="path-1"></path>
        <linearGradient x1="40.6725588%" y1="139.75488%" x2="59.1777394%" y2="-13.4123853%" id="linearGradient-3">
            <stop stop-color="#107161" offset="0%"></stop>
            <stop stop-color="#46B490" offset="100%"></stop>
        </linearGradient>
        <path d="M40.8212845,0.288034188 C24.1158879,0.288034188 9.35891379,8.60769231 0.429284483,21.3282051 L0.429284483,21.3282051 L12.6856552,21.3282051 L22.9876293,53.8076923 L26.8528966,65.9641026 L26.8964224,65.9641026 L27.9700603,69.3188034 L31.2029224,78.1059829 L22.267319,78.1059829 L5.05924138,23.9623932 L4.89793966,23.9623932 L4.89793966,76.2957265 L11.2902672,76.2957265 L11.2902672,78.1059829 L0.429284483,78.1059829 C9.35891379,90.825641 24.1158879,99.1452991 40.8212845,99.1452991 L40.8212845,99.1452991 C57.5292414,99.1452991 72.2879224,90.8239316 81.2166983,78.1017094 L81.2166983,78.1017094 L45.3710172,78.1017094 L45.3710172,76.2957265 L50.2851724,76.2957265 L50.2851724,23.1358974 L45.3710172,23.1358974 L45.3710172,21.3316239 L67.3251207,21.3316239 L67.3251207,23.1358974 L59.1320172,23.1358974 L59.1320172,76.2957265 L71.2569569,76.2957265 C76.6626983,76.2957265 78.2185345,75.3128205 83.13525,55.2948718 L83.13525,55.2948718 L84.9368793,55.2948718 L84.9368793,71.8777778 C88.2823966,65.2102564 90.1779052,57.6871795 90.1779052,49.717094 L90.1779052,49.717094 C90.1779052,22.4179487 68.0804224,0.288034188 40.8212845,0.288034188 Z" id="path-4"></path>
        <linearGradient x1="12.9086836%" y1="113.120159%" x2="59.4505145%" y2="24.1955797%" id="linearGradient-6">
            <stop stop-color="#107161" offset="0%"></stop>
            <stop stop-color="#46B490" offset="100%"></stop>
        </linearGradient>
    </defs>
    <g id="Page-1" stroke="none" stroke-width="1" fill="none" fill-rule="evenodd">
        <g id="Home" transform="translate(-100.000000, -83.000000)">
            <g id="Group-12" transform="translate(100.000000, 83.000000)">
                <g id="Group-3" transform="translate(0.000000, 23.643590)">
                    <mask id="mask-2" fill="white">
                        <use xlink:href="#path-1"></use>
                    </mask>
                    <g id="Clip-2"></g>
                    <path d="M7.75272414,0.0615384615 C2.85222414,7.73846154 0,16.8529915 0,26.6401709 L0,26.6401709 C0,36.4264957 2.85222414,45.5410256 7.75272414,53.2188034 L7.75272414,53.2188034 L11.1400603,53.2188034 L11.1400603,0.0615384615 L7.75272414,0.0615384615 Z" id="Fill-1" fill="url(#linearGradient-3)" mask="url(#mask-2)"></path>
                </g>
                <g id="Group-6" transform="translate(8.534483, 0.566667)">
                    <mask id="mask-5" fill="white">
                        <use xlink:href="#path-4"></use>
                    </mask>
                    <g id="Clip-5"></g>
                    <path d="M40.8212845,0.288034188 C24.1158879,0.288034188 9.35891379,8.60769231 0.429284483,21.3282051 L0.429284483,21.3282051 L12.6856552,21.3282051 L22.9876293,53.8076923 L26.8528966,65.9641026 L26.8964224,65.9641026 L27.9700603,69.3188034 L31.2029224,78.1059829 L22.267319,78.1059829 L5.05924138,23.9623932 L4.89793966,23.9623932 L4.89793966,76.2957265 L11.2902672,76.2957265 L11.2902672,78.1059829 L0.429284483,78.1059829 C9.35891379,90.825641 24.1158879,99.1452991 40.8212845,99.1452991 L40.8212845,99.1452991 C57.5292414,99.1452991 72.2879224,90.8239316 81.2166983,78.1017094 L81.2166983,78.1017094 L45.3710172,78.1017094 L45.3710172,76.2957265 L50.2851724,76.2957265 L50.2851724,23.1358974 L45.3710172,23.1358974 L45.3710172,21.3316239 L67.3251207,21.3316239 L67.3251207,23.1358974 L59.1320172,23.1358974 L59.1320172,76.2957265 L71.2569569,76.2957265 C76.6626983,76.2957265 78.2185345,75.3128205 83.13525,55.2948718 L83.13525,55.2948718 L84.9368793,55.2948718 L84.9368793,71.8777778 C88.2823966,65.2102564 90.1779052,57.6871795 90.1779052,49.717094 L90.1779052,49.717094 C90.1779052,22.4179487 68.0804224,0.288034188 40.8212845,0.288034188 Z" id="Fill-4" fill="url(#linearGradient-6)" mask="url(#mask-5)"></path>
                </g>
                <g id="Group-11" transform="translate(7.681034, 21.079487)" fill="#FEFEFE">
                    <path d="M12.1434595,55.7824786 L5.7511319,55.7824786 L5.7511319,3.45 L5.91243362,3.45 L23.1205112,57.592735 L32.0561147,57.592735 L28.8223991,48.8064103 L27.7504681,45.4508547 L27.7060888,45.4508547 L23.8408216,33.2944444 L13.5397009,0.814957265 L1.28247672,0.814957265 C0.865993966,1.40897436 0.462312931,2.01239316 0.0714336207,2.62606838 L3.45876983,2.62606838 L3.45876983,55.7824786 L0.0714336207,55.7824786 C0.462312931,56.3952991 0.865993966,56.9987179 1.28247672,57.592735 L12.1434595,57.592735 L12.1434595,55.7824786 Z" id="Fill-7"></path>
                    <path d="M85.7904129,34.7822222 L83.9879302,34.7822222 C79.0720681,54.8001709 77.5162319,55.7830769 72.1104905,55.7830769 L59.9864043,55.7830769 L59.9864043,2.62324786 L68.1778009,2.62324786 L68.1778009,0.818974359 L46.2245509,0.818974359 L46.2245509,2.62324786 L51.138706,2.62324786 L51.138706,55.7830769 L46.2245509,55.7830769 L46.2245509,57.5890598 L82.0702319,57.5890598 C83.4562319,55.6147009 84.7005595,53.5360684 85.7904129,51.3642735 L85.7904129,34.7822222 Z" id="Fill-9"></path>
                </g>
            </g>
        </g>
    </g>
</svg>