<?xml version="1.0" encoding="UTF-8"?>
<svg width="91px" height="111px" viewBox="0 0 91 111" version="1.1" xmlns="http://www.w3.org/2000/svg" xmlns:xlink="http://www.w3.org/1999/xlink">
    <!-- Generator: Sketch 63.1 (92452) - https://sketch.com -->
    <title>businessman</title>
    <desc>Created with Sketch.</desc>
    <g id="Page-1" stroke="none" stroke-width="1" fill="none" fill-rule="evenodd">
        <g id="Home" transform="translate(-288.000000, -3195.000000)" fill="#FFFFFF" fill-rule="nonzero">
            <g id="businessman" transform="translate(288.000000, 3195.000000)">
                <path d="M3.4138,37.5586027 C3.042,37.1864027 2.526,36.9726027 2,36.9726027 C1.474,36.9726027 0.9582,37.1866027 0.586,37.5586027 C0.2138,37.9306027 0,38.4466027 0,38.9726027 C0,39.4986027 0.2138,40.0146027 0.586,40.3864027 C0.958,40.7586027 1.474,40.9726027 2,40.9726027 C2.526,40.9726027 3.042,40.7586027 3.4138,40.3864027 C3.786,40.0146027 4,39.4986027 4,38.9726027 C4,38.4466027 3.786,37.9306027 3.4138,37.5586027 Z" id="Path"></path>
                <path d="M84.5613208,0.97260274 L41.1360778,0.97260274 C39.9509316,0.97260274 38.9898514,1.93467305 38.9898514,3.12104024 C38.9898514,4.30740743 39.9509316,5.26947774 41.1360778,5.26947774 L84.5613208,5.26947774 C85.74475,5.26947774 86.7075472,6.2332668 86.7075472,7.41791524 L86.7075472,104.52729 C86.7075472,105.711939 85.74475,106.675728 84.5613208,106.675728 L6.43867925,106.675728 C5.25525,106.675728 4.29245283,105.711939 4.29245283,104.52729 L4.29245283,47.0207082 C4.29245283,45.834341 3.33137264,44.8722707 2.14622642,44.8722707 C0.961080189,44.8722707 0,45.834341 0,47.0207082 L0,104.52729 C0,108.081236 2.88839151,110.972603 6.43867925,110.972603 L84.5613208,110.972603 C88.1116085,110.972603 91,108.081236 91,104.52729 L91,7.41791524 C91,3.86396993 88.1116085,0.97260274 84.5613208,0.97260274 Z" id="Path"></path>
                <path d="M46.3171384,9.97260274 C44.8497836,9.97260274 43.3750963,10.0840301 41.9340521,10.3034562 C40.7567608,10.4830256 39.9486805,11.5765132 40.1291884,12.7462857 C40.3096964,13.9160583 41.4108595,14.7179064 42.5877194,14.5396227 C43.8133187,14.3527676 45.0680322,14.2582687 46.3171384,14.2582687 C59.7547356,14.2582687 70.6870034,25.1207176 70.6870034,38.4724956 C70.6870034,44.4017144 68.5299659,49.8387246 64.9560383,54.0530342 C63.374599,51.3509218 61.2145423,49.0201624 58.5927562,47.2122542 C57.0626441,46.1571232 55.4186633,45.3149899 53.6976916,44.6916397 C55.6619285,42.7838755 56.8845085,40.1252627 56.8845085,37.1870101 L56.8845085,35.0977479 C56.8845085,29.3078132 52.1440725,24.5976521 46.3171384,24.5976521 C40.4902043,24.5976521 35.7497684,29.3078132 35.7497684,35.0977479 L35.7497684,37.1870101 C35.7497684,40.1252627 36.9721327,42.7838755 38.9365853,44.6916397 C37.2158292,45.3149899 35.5718484,46.1571232 34.0415207,47.2122542 C31.4072263,49.028948 29.2385431,51.3727787 27.6551629,54.0911766 C24.9320163,50.8758557 23.0285958,46.9210432 22.2839197,42.5091644 C22.0870215,41.3423918 20.9739971,40.555115 19.8003721,40.7503271 C18.6256687,40.9459677 17.8331159,42.0508124 18.0300141,43.2180135 C19.1389409,49.7879394 22.5716109,55.8015859 27.6959228,60.150894 C32.878463,64.5499158 39.4916957,66.9726027 46.3169228,66.9726027 C62.1328252,66.9726027 75,54.1876041 75,38.4727099 C75,22.7578157 62.1330408,9.97260274 46.3171384,9.97260274 Z M40.0629806,35.0975337 C40.0629806,31.6709295 42.8687252,28.8831037 46.3171384,28.8831037 C49.7655516,28.8831037 52.5712962,31.6709295 52.5712962,35.0975337 L52.5712962,37.1867958 C52.5712962,40.6131857 49.7655516,43.4010114 46.3171384,43.4010114 C42.8687252,43.4010114 40.0629806,40.6131857 40.0629806,37.1867958 L40.0629806,35.0975337 Z M46.3171384,62.6867225 C40.478343,62.6867225 35.0803578,60.6608882 30.8555664,57.2263555 C33.7514571,51.3867071 39.6715566,47.6866774 46.3171384,47.6866774 C52.9489179,47.6866774 58.8578031,51.371493 61.7601636,57.1899274 C57.553272,60.6229601 52.1731867,62.6867225 46.3171384,62.6867225 Z" id="Shape"></path>
                <path d="M64.8395062,86.9726027 L34.1604938,86.9726027 C32.9674691,86.9726027 32,87.8682027 32,88.9726027 C32,90.0770027 32.9674691,90.9726027 34.1604938,90.9726027 L64.8395062,90.9726027 C66.0327469,90.9726027 67,90.0770027 67,88.9726027 C67,87.8682027 66.0325309,86.9726027 64.8395062,86.9726027 Z" id="Path"></path>
                <path d="M27.414,75.5586027 C27.042,75.1864027 26.526,74.9726027 26,74.9726027 C25.474,74.9726027 24.958,75.1866027 24.586,75.5586027 C24.214,75.9306027 24,76.4466027 24,76.9726027 C24,77.5004027 24.2142,78.0146027 24.586,78.3864027 C24.958,78.7586027 25.474,78.9726027 26,78.9726027 C26.526,78.9726027 27.042,78.7586027 27.414,78.3864027 C27.788,78.0146027 28,77.4986027 28,76.9726027 C28,76.4466027 27.788,75.9306027 27.414,75.5586027 Z" id="Path"></path>
                <path d="M27.414,87.5586027 C27.042,87.1864027 26.528,86.9726027 26,86.9726027 C25.474,86.9726027 24.958,87.1866027 24.586,87.5586027 C24.214,87.9306027 24,88.4466027 24,88.9726027 C24,89.5004027 24.2142,90.0146027 24.586,90.3864027 C24.958,90.7586027 25.474,90.9726027 26,90.9726027 C26.526,90.9726027 27.042,90.7586027 27.414,90.3864027 C27.788,90.0146027 28,89.5006027 28,88.9726027 C28,88.4466027 27.788,87.9306027 27.414,87.5586027 Z" id="Path"></path>
                <path d="M64.8395062,74.9726027 L34.1604938,74.9726027 C32.9674691,74.9726027 32,75.8682027 32,76.9726027 C32,78.0770027 32.9674691,78.9726027 34.1604938,78.9726027 L64.8395062,78.9726027 C66.0327469,78.9726027 67,78.0770027 67,76.9726027 C67,75.8682027 66.0325309,74.9726027 64.8395062,74.9726027 Z" id="Path"></path>
                <path d="M25.3979843,13.5617672 C24.5948856,12.7762146 23.29373,12.7762146 22.4908368,13.5617672 L15.7967715,20.1146119 L13.5091632,17.8752638 C12.7060645,17.0897112 11.4049089,17.0897112 10.6020157,17.8752638 C9.7993281,18.6612189 9.7993281,19.9353272 10.6020157,20.721081 L14.343095,24.3832371 C14.7445416,24.7760134 15.2703482,24.9726027 15.796566,24.9726027 C16.3227837,24.9726027 16.8485904,24.7760134 17.2502425,24.3834383 L25.3979843,16.4075844 C26.2006719,15.6216294 26.2006719,14.347521 25.3979843,13.5617672 Z" id="Path"></path>
                <path d="M17.5,0.97260274 C7.85045732,0.97260274 0,8.82306006 0,18.4726027 C0,28.1221454 7.85045732,35.9726027 17.5,35.9726027 C27.1495427,35.9726027 35,28.1221454 35,18.4726027 C35,8.82306006 27.1495427,0.97260274 17.5,0.97260274 Z M17.5,31.7043101 C10.2039939,31.7043101 4.26829268,25.7686088 4.26829268,18.4726027 C4.26829268,11.1765966 10.2039939,5.24089542 17.5,5.24089542 C24.7960061,5.24089542 30.7317073,11.1765966 30.7317073,18.4726027 C30.7317073,25.7686088 24.7960061,31.7043101 17.5,31.7043101 Z" id="Shape"></path>
            </g>
        </g>
    </g>
</svg>