<?xml version="1.0" encoding="UTF-8"?>
<svg width="18px" height="18px" viewBox="0 0 18 18" version="1.1" xmlns="http://www.w3.org/2000/svg" xmlns:xlink="http://www.w3.org/1999/xlink">
    <!-- Generator: Sketch 63.1 (92452) - https://sketch.com -->
    <title>download</title>
    <desc>Created with Sketch.</desc>
    <g id="Page-1" stroke="none" stroke-width="1" fill="none" fill-rule="evenodd">
        <g id="Home" transform="translate(-137.000000, -611.000000)" fill="#FFFFFF" fill-rule="nonzero">
            <g id="Group-7" transform="translate(100.000000, 597.000000)">
                <g id="download" transform="translate(37.000000, 14.000000)">
                    <path d="M13.7295092,7.90075 C13.6383835,7.70683333 13.438132,7.58333333 13.2176304,7.58333333 L10.967614,7.58333333 L10.967614,0.541666667 C10.967614,0.242666667 10.7156122,0 10.4051099,0 L8.15509356,0 C7.84459129,0 7.59258946,0.242666667 7.59258946,0.541666667 L7.59258946,7.58333333 L5.34257307,7.58333333 C5.12207146,7.58333333 4.92182,7.70791667 4.83069434,7.90075 C4.73844367,8.09466667 4.77444393,8.32108333 4.91956999,8.48141667 L8.85709867,12.81475 C8.96397445,12.9328333 9.11810057,13 9.28010175,13 C9.44210293,13 9.59622905,12.93175 9.70310483,12.81475 L13.6406335,8.48141667 C13.7868846,8.32216667 13.8206348,8.09466667 13.7295092,7.90075 Z" id="Path"></path>
                    <path d="M15.5133333,12 L15.5133333,15.6 L3.04666667,15.6 L3.04666667,12 L0.78,12 L0.78,16.8 C0.78,17.4636 1.28773333,18 1.91333333,18 L16.6466667,18 C17.2734,18 17.78,17.4636 17.78,16.8 L17.78,12 L15.5133333,12 Z" id="Path"></path>
                </g>
            </g>
        </g>
    </g>
</svg>