<?xml version="1.0" encoding="UTF-8"?>
<svg width="169px" height="126px" viewBox="0 0 169 126" version="1.1" xmlns="http://www.w3.org/2000/svg" xmlns:xlink="http://www.w3.org/1999/xlink">
    <!-- Generator: Sketch 63.1 (92452) - https://sketch.com -->
    <title>Group 9</title>
    <desc>Created with Sketch.</desc>
    <g id="Page-1" stroke="none" stroke-width="1" fill="none" fill-rule="evenodd">
        <g id="Home" transform="translate(-902.000000, -4024.000000)" fill-rule="nonzero">
            <g id="Group-9" transform="translate(902.000000, 4024.000000)">
                <g id="camera" transform="translate(114.500000, 81.870249) rotate(7.000000) translate(-114.500000, -81.870249) translate(61.000000, 43.370249)">
                    <g id="Group" transform="translate(11.307692, 6.000000)" fill="#323E40">
                        <path d="M84.9564344,0.1498 L79.337148,0.1498 C78.2306492,0.1498 77.3334487,1.014 77.3334487,2.0798 L77.3334487,6.3714 L82.1466874,9.9962 L86.959926,6.3714 L86.959926,2.0798 C86.959926,1.014 86.0629332,0.1498 84.9564344,0.1498 Z" id="Path"></path>
                        <path d="M18.0033938,0.1498 L2.06017661,0.1498 C0.953677804,0.1498 0.056477327,1.014 0.056477327,2.0798 L0.056477327,6.3714 L10.0313699,9.9962 L20.0062627,6.3714 L20.0062627,2.0798 C20.0066778,1.014 19.1098926,0.1498 18.0033938,0.1498 Z" id="Path"></path>
                    </g>
                    <path d="M97.1581711,13.4134147 L87.559807,13.4134147 C85.3193192,13.4134147 83.3707449,11.8902647 82.8467498,9.72897717 L81.9302243,5.94965084 C81.0840892,2.45992019 77.9374274,0 74.3193563,0 L48.3970242,0 C44.7789531,0 41.6324983,2.45992019 40.7861562,5.94965084 L39.8698377,9.72897717 C39.3458426,11.8900593 37.3972683,13.4134147 35.1567805,13.4134147 L9.45700647,13.4134147 C4.40400462,13.4134147 0.307692308,17.4769967 0.307692308,22.4898774 L0.307692308,25.805029 L7.9229079,45.206502 L0.307692308,64.6081803 L0.307692308,67.923332 C0.307692308,72.9362127 4.40400462,77 9.45700647,77 L97.1583781,77 C102.21138,77 106.307692,72.9362127 106.307692,67.923332 L106.307692,22.4898774 C106.307692,17.4769967 102.211173,13.4134147 97.1581711,13.4134147 Z" id="Path" fill="#455058"></path>
                    <path d="M96.8921553,13 L90.3076923,13 C95.5077243,13 99.7232293,17.090402 99.7232293,22.1356514 L99.7232293,67.8643486 C99.7232293,72.9098047 95.5077243,77 90.3076923,77 L96.8921553,77 C102.092187,77 106.307692,72.9098047 106.307692,67.8643486 L106.307692,22.1356514 C106.307692,17.0901953 102.092187,13 96.8921553,13 Z" id="Path" fill="#3C464D"></path>
                    <path d="M70.6334379,10 L52.9819467,10 C51.5049492,10 50.3076923,8.88056224 50.3076923,7.5 C50.3076923,6.11943776 51.5049492,5 52.9819467,5 L70.6334379,5 C72.1102278,5 73.3076923,6.11943776 73.3076923,7.5 C73.3076923,8.88056224 72.1104354,10 70.6334379,10 Z" id="Path" fill="#EFEDEE"></path>
                    <path d="M66.954739,7.5 C66.954739,6.11943776 65.769663,5 64.3076923,5 L70.6606456,5 C72.1226162,5 73.3076923,6.11943776 73.3076923,7.5 C73.3076923,8.88056224 72.1226162,10 70.6606456,10 L64.3076923,10 C65.769663,10 66.954739,8.88075639 66.954739,7.5 Z" id="Path" fill="#D4D2D3"></path>
                    <circle id="Oval" fill="#323E40" cx="61.8076923" cy="41.5" r="28.5"></circle>
                    <circle id="Oval" fill="#43C6B3" cx="61.8076923" cy="42.5" r="20.5"></circle>
                    <path d="M57.8395816,60.9404759 C68.9135887,60.9404759 77.8906267,51.9412295 77.8906267,40.8402729 C77.8906267,33.789587 74.2684986,27.5878225 68.7885364,24 C76.4945088,26.80308 82,34.2068501 82,42.899797 C82,54.0009535 73.0227625,63 61.9489548,63 C57.9083902,63 54.147847,61.8007936 51,59.73987 C53.1340659,60.5164151 55.437461,60.9404759 57.8395816,60.9404759 Z" id="Path" fill="#00AD94"></path>
                    <g id="Group" transform="translate(48.307692, 37.000000)" fill="#455058">
                        <path d="M1.7497218,5.32058537 C0.883285714,5.32058537 0.181285714,4.64565854 0.181285714,3.81307317 L0.181285714,1.69014634 C0.181285714,0.857560976 0.883285714,0.182634146 1.7497218,0.182634146 C2.61615789,0.182634146 3.31815794,0.857560976 3.31815794,1.69014634 L3.31815794,3.81307317 C3.3183609,4.64565854 2.61615789,5.32058537 1.7497218,5.32058537 Z" id="Path"></path>
                        <path d="M25.407,5.32058537 C24.5405639,5.32058537 23.8385639,4.64565854 23.8385639,3.81307317 L23.8385639,1.69014634 C23.8385639,0.857560976 24.5405639,0.182634146 25.407,0.182634146 C26.2734361,0.182634146 26.9754361,0.857560976 26.9754361,1.69014634 L26.9754361,3.81307317 C26.9756391,4.64565854 26.2734361,5.32058537 25.407,5.32058537 Z" id="Path"></path>
                        <path d="M9.97721053,2.07609756 L9.97721053,4.37970732 C9.97721053,6.29131707 11.5896992,7.84117073 13.5785639,7.84117073 L13.5785639,7.84117073 C15.5674286,7.84117073 17.1799173,6.29131707 17.1799173,4.37970732 L17.1799173,2.07609756 L9.97721053,2.07609756 L9.97721053,2.07609756 Z" id="Path"></path>
                    </g>
                    <circle id="Oval" fill="#EE5E71" cx="27.8076923" cy="22.5" r="3.5"></circle>
                    <path d="M10.9933538,27.8875127 L0.307692308,25 L0.307692308,64 L10.9933538,61.1122809 C14.1383704,60.2624174 16.3076923,57.5355056 16.3076923,54.4320694 L16.3076923,34.5679306 C16.3076923,31.4644944 14.1383704,28.7375826 10.9933538,27.8875127 Z" id="Path" fill="#323E40"></path>
                </g>
                <g id="moon">
                    <path d="M57.3809876,37.3453006 C57.431943,37.2931997 57.4825256,37.2409745 57.532984,37.1885006 C58.4930593,36.1890095 60.1593025,37.1065567 59.819641,38.4503612 C58.4759084,43.7657688 55.6539706,48.7837414 51.3555675,52.8510908 C39.4945054,64.0745378 20.6757869,63.6471615 9.30812268,51.9238445 C-2.05705593,40.2031389 -1.94893094,21.4840059 9.63262192,9.8964745 C13.582788,5.9442693 18.3631551,3.32691569 23.4118461,2.04528409 C24.7527202,1.70482543 25.6926619,3.36484114 24.6949293,4.32354685 C24.5799688,4.43396587 24.4658783,4.54587704 24.3526578,4.65915602 C15.1409063,13.8756627 15.284203,28.9068252 24.7796893,37.9426575 C33.946948,46.6661334 48.5311441,46.3910806 57.3809876,37.3453006 Z" id="Path" fill="#FCE25C"></path>
                    <path d="M46.8645833,56.0416687 C35.2096459,63.855491 19.2720478,62.3981709 9.22095567,51.9233716 C-2.02687074,40.2026381 -1.91986572,21.4837837 9.54197072,9.89609905 C13.4507288,5.9444238 18.1810886,3.3269674 23.1783459,2.04497332 C23.3652972,1.99647888 23.5436389,1.9890182 23.7109111,2.01388714 C22.1611833,3.07081728 20.6901718,4.29188244 19.3187856,5.67832609 C7.85694916,17.2660107 7.74994414,35.9848651 18.9977705,47.7055986 C26.4364643,55.4572485 37.1000679,58.2711696 46.8645833,56.0416687 Z" id="Path" fill="#FBD307"></path>
                    <path d="M48.2612101,25.5277732 L49.186252,27.3028575 C49.331815,27.5822327 49.6133832,27.775985 49.9389949,27.8207536 L52.0074878,28.1053884 C52.8275229,28.2182883 53.1549428,29.172494 52.561583,29.7202357 L51.064751,31.1019441 C50.8291637,31.3194262 50.7215736,31.6328059 50.7772415,31.9399473 L51.1306225,33.8910478 C51.2706316,34.6644669 50.4135277,35.2542861 49.6800296,34.8891658 L47.8298166,33.967986 C47.5385615,33.8230388 47.1906052,33.8230388 46.89935,33.967986 L45.049137,34.8891658 C44.3157681,35.2542861 43.4585351,34.6644669 43.5985442,33.8910478 L43.9519252,31.9399473 C44.007593,31.6328059 43.900003,31.3194262 43.6644157,31.1019441 L42.1675837,29.7202357 C41.5742239,29.172494 41.9016438,28.218166 42.7216789,28.1053884 L44.7901718,27.8207536 C45.1157834,27.775985 45.3972225,27.5822327 45.5429146,27.3028575 L46.4679566,25.5277732 C46.8348993,24.8240756 47.8945257,24.8240756 48.2612101,25.5277732 L48.2612101,25.5277732 Z" id="Path" fill="#FCE25C"></path>
                    <path d="M45.3964358,32.3294008 C45.3964358,33.0828591 45.5416787,33.8045157 45.8069048,34.4674612 L44.9783889,34.8894468 C44.2610153,35.2539445 43.4236585,34.6643878 43.5600605,33.8913591 L43.9061175,31.9404401 C43.9604257,31.6334303 43.8555982,31.3190816 43.6244725,31.1025846 L42.1606768,29.7204289 C41.5809683,29.1724592 41.9005026,28.2184047 42.702496,28.1058752 L44.7257925,27.8208821 C45.0440639,27.7756256 45.3193939,27.5823685 45.4621108,27.303491 L46.3664057,25.527482 C46.7250925,24.8241727 47.7607374,24.8241727 48.1194242,25.527482 L48.8645833,26.9915886 C46.8122382,27.945643 45.3964358,29.9772897 45.3964358,32.3294008 Z" id="Path" fill="#FBD307"></path>
                    <path d="M39.6338366,1.14354202 L40.886524,3.78249471 C41.1739573,4.38790297 41.7294303,4.80760623 42.3720551,4.90469061 L45.1731234,5.32787895 C46.7914173,5.57233245 47.4376336,7.63998089 46.2665911,8.82677525 L44.2397133,10.8809812 C43.7747441,11.3522139 43.5624912,12.0311822 43.6722689,12.6967081 L44.1507658,15.5972908 C44.4271854,17.2729922 42.7355068,18.5508965 41.2880448,17.7597832 L38.78267,16.3903955 C38.2079231,16.0762404 37.5212436,16.0762404 36.9464966,16.3903955 L34.4411219,17.7597832 C32.9936598,18.5510209 31.3019812,17.2731166 31.5784009,15.5972908 L32.0568978,12.6967081 C32.1666755,12.0313067 31.9544226,11.3523384 31.4894534,10.8809812 L29.4625755,8.82677525 C28.2915331,7.63998089 28.9377493,5.57233245 30.5560433,5.32787895 L33.3571116,4.90469061 C33.9997364,4.80760623 34.5552093,4.38802744 34.8426427,3.78249471 L36.09533,1.14354202 C36.8191209,-0.381180673 38.9101655,-0.381180673 39.6338366,1.14354202 Z" id="Path" fill="#FCE25C"></path>
                    <path d="M35.1829048,13.4136814 C35.1829048,14.5836872 35.377727,15.710129 35.7368111,16.7618896 L33.7962288,17.7601286 C32.2567512,18.5505049 30.4575105,17.273456 30.7516539,15.5968625 L31.2609931,12.6967416 C31.3768677,12.0308341 31.1514851,11.3524796 30.6574261,10.8807432 L28.5003747,8.82700953 C27.2550404,7.63957807 27.9426483,5.57215284 29.6642147,5.32819418 L32.6438489,4.90500057 C33.3263634,4.80791498 33.9184702,4.38721075 34.2240737,3.78229284 L35.5559957,1.14355625 C36.3263712,-0.381185415 38.5496368,-0.381185415 39.3200123,1.14355625 L40.6519342,3.78229284 C40.7117816,3.90053811 40.7830891,4.01255994 40.8645833,4.11586897 C37.4812978,5.89826086 35.1829048,9.39334215 35.1829048,13.4136814 L35.1829048,13.4136814 Z" id="Path" fill="#FBD307"></path>
                </g>
            </g>
        </g>
    </g>
</svg>