<?xml version="1.0" encoding="UTF-8"?>
<svg width="115px" height="116px" viewBox="0 0 115 116" version="1.1" xmlns="http://www.w3.org/2000/svg" xmlns:xlink="http://www.w3.org/1999/xlink">
    <title>book</title>
    <g id="Page-1" stroke="none" stroke-width="1" fill="none" fill-rule="evenodd">
        <g id="Home" transform="translate(-1184.000000, -4324.000000)" fill-rule="nonzero">
            <g id="book" transform="translate(1184.000000, 4324.000000)">
                <path d="M11.2207663,103.639554 L0.202368354,41.0828479 C0.0959760742,40.4790691 0.02965461,39.8689117 0.00383866255,39.2563748 C-0.159910533,32.1640828 4.93268105,26.0377205 11.9354731,24.902678 L33.1980031,21.1504669 L32.622267,103.639554 L11.2207663,103.639554 Z" id="Shape" fill="#35495E"></path>
                <path d="M93.0547053,100.899844 C92.6859977,102.430554 91.4476578,103.598799 89.8980832,103.877789 L27.3215243,114.91604 C23.377294,115.604601 19.3275703,114.561299 16.2070059,112.052685 C13.0864416,109.54407 11.1973014,105.813133 11.0222366,101.813081 C10.8658627,95.0321736 15.5343661,89.090442 22.1597523,87.6380607 L39.6899241,92.561597 L39.6700711,92.561597 L23.8869606,95.3608657 C22.1266862,95.6702607 20.5978517,96.7525533 19.7210806,98.3099752 C18.8443097,99.8673974 18.7119744,101.735867 19.3604836,103.401318 C20.48341,106.083742 23.3353645,107.609206 26.189905,107.054265 L74.0157078,98.6167526 L93.0547053,100.899844 Z" id="Shape" fill="#2C3E50"></path>
                <path d="M39.6700711,92.561597 L23.8869606,95.3608657 C22.1266862,95.6702607 20.5978517,96.7525533 19.7210806,98.3099752 C18.8443097,99.8673974 18.7119744,101.735867 19.3604836,103.401318 C20.48341,106.083742 23.3353645,107.609206 26.189905,107.054265 L74.0157078,98.6167526 L39.6700711,92.561597 Z" id="Shape" fill="#F9EAB0"></path>
                <path d="M25.3282862,65.8414858 L36.3605811,3.2768387 C36.7554952,1.12627219 38.8046546,-0.308227726 40.9605141,0.0566870999 L103.054646,11.0055996 C110.062468,12.1415212 115.159032,18.2718021 114.996207,25.3692228 C114.9692,25.9790383 114.902885,26.5864767 114.797677,27.1877548 L103.765382,89.7524019 L25.3282862,65.8414858 Z" id="Shape" fill="#E64C3C"></path>
                <path d="M90.0727893,20.7812016 C89.9563453,20.7812016 89.8401171,20.7711844 89.7253623,20.7514222 L44.7564018,12.8221463 C43.7415806,12.5718689 43.0946269,11.5776079 43.2768996,10.5483959 C43.4591723,9.51918382 44.4082339,8.807576 45.4472851,8.92103784 L90.4142604,16.8403873 C91.4284153,17.0180481 92.1384578,17.9415332 92.049576,18.9672886 C91.9606945,19.9930439 91.1023881,20.7806319 90.0727893,20.7812016 Z" id="Shape" fill="#3F5C6C"></path>
                <path d="M80.5274817,29.1711075 C80.41094,29.171235 80.2946336,29.1606013 80.1800547,29.1393017 L50.8532487,23.9755444 C49.7981084,23.7615635 49.105809,22.7455727 49.2926639,21.6852924 C49.4795189,20.6250122 50.4774238,19.9068888 51.5421467,20.0664947 L80.8709381,25.2282667 C81.8910084,25.4006459 82.6077229,26.3274661 82.517945,27.3580962 C82.4281671,28.3887262 81.5619935,29.1776614 80.5274817,29.1711075 L80.5274817,29.1711075 Z" id="Shape" fill="#3F5C6C"></path>
                <path d="M48.0577326,34.2294624 L76.0758262,34.2294624 C80.9511674,34.2294624 84.9034124,38.1817074 84.9034124,43.0570486 L84.9034124,49.2314063 C84.9034124,54.1067475 80.9511674,58.0589925 76.0758262,58.0589925 L48.0577326,58.0589925 C43.1823914,58.0589925 39.2301464,54.1067475 39.2301464,49.2314063 L39.2301464,43.0570486 C39.2301464,38.1817074 43.1823914,34.2294624 48.0577326,34.2294624 Z" id="Rectangle-path" fill="#ECF0F1" transform="translate(62.066779, 46.144227) rotate(10.017934) translate(-62.066779, -46.144227) "></path>
                <path d="M114.992236,25.3592963 C114.968598,25.9719955 114.902261,26.5823004 114.793707,27.1857695 L103.755456,89.7424754 L88.4488164,85.0770277 L97.3230936,34.7696037 L99.4275084,22.8975282 L101.571629,10.747511 L103.060602,11.0055996 C110.060197,12.1462365 115.149901,18.2691254 114.992236,25.3592963 L114.992236,25.3592963 Z" id="Shape" fill="#C03A2B"></path>
                <path d="M92.0223509,73.5623055 L29.9222632,62.6233195 C29.6927538,62.5837948 29.4602973,62.5637606 29.2274093,62.5637606 C27.169715,62.568979 25.4569501,64.1453351 25.2813666,66.1955312 C25.105783,68.245727 26.5255663,70.0903619 28.5524084,70.4453894 L91.1091143,81.4637873 C92.8678473,81.7822781 94.3920134,82.8705468 95.2642597,84.4305997 C96.1365059,85.9906526 96.2654333,87.8590177 95.6157383,89.5240928 C94.4988869,92.2005813 91.6512204,93.7198903 88.8061699,93.1571861 L26.4876996,82.1784942 C26.2581901,82.1389695 26.0257337,82.1190446 25.7928456,82.1189353 C23.7313429,82.1138579 22.0088564,83.6872732 21.8278134,85.7408172 C21.6467706,87.7943611 23.0673991,89.6448774 25.0979917,90.000564 L87.6745506,101.018962 C91.6159084,101.709918 95.6639332,100.670189 98.7844691,98.1653986 C101.905005,95.660608 103.795811,91.9333578 103.973838,87.9358552 C104.12966,80.8354269 99.0320088,74.7046974 92.0223509,73.5623055 L92.0223509,73.5623055 Z" id="Shape" fill="#802F34"></path>
                <path d="M95.6157383,89.5240928 C94.4988869,92.2005813 91.6512204,93.7198903 88.8061699,93.1571861 L26.4876996,82.1784942 L28.5524084,70.4453894 L91.1091143,81.4637873 C92.8678473,81.7822781 94.3920134,82.8705468 95.2642597,84.4305997 C96.1365059,85.9906526 96.2654333,87.8590177 95.6157383,89.5240928 L95.6157383,89.5240928 Z" id="Shape" fill="#F9EAB0"></path>
            </g>
        </g>
    </g>
</svg>