<?xml version="1.0" encoding="UTF-8"?>
<svg width="117px" height="105px" viewBox="0 0 117 105" version="1.1" xmlns="http://www.w3.org/2000/svg" xmlns:xlink="http://www.w3.org/1999/xlink">
    <!-- Generator: Sketch 63.1 (92452) - https://sketch.com -->
    <title>Group 18</title>
    <desc>Created with Sketch.</desc>
    <g id="Page-1" stroke="none" stroke-width="1" fill="none" fill-rule="evenodd">
        <g id="Home" transform="translate(-932.000000, -4334.000000)" fill-rule="nonzero">
            <g id="Group-18" transform="translate(932.000000, 4334.000000)">
                <g id="computer-2" transform="translate(16.000000, 0.000000)">
                    <g id="computer" transform="translate(0.357143, 0.000000)">
                        <g id="Group" transform="translate(0.000000, 0.188280)">
                            <polygon id="Path" fill="#544F57" points="34.5337891 85.0893794 36.6720703 74.0107948 50 69.0670573 63.3279297 74.0107948 65.4662109 85.0893794 50 88.5536127"></polygon>
                            <path d="M8.6640625,72.696393 C36.2212891,74.6529245 63.7785156,74.6529245 91.3359375,72.696393 C94.9027344,72.4431971 97.7810547,69.7136598 98.215625,66.1796128 C100.594727,46.8342405 100.594727,27.4890626 98.215625,8.14369021 C97.7810547,4.60964331 94.9027344,1.88010595 91.3359375,1.62691005 C63.7785156,-0.329621389 36.2212891,-0.329621389 8.6640625,1.62691005 C5.09726563,1.88010595 2.21894531,4.60964331 1.784375,8.14369021 C-0.594726562,27.4888681 -0.594726562,46.8342405 1.784375,66.1796128 C2.21894531,69.7134653 5.09726563,72.4430026 8.6640625,72.696393 Z" id="Path" fill="#665E66"></path>
                            <path d="M10.4402344,72.8187127 C9.84863281,72.7786525 9.25722656,72.7385923 8.665625,72.6965875 C5.09824219,72.4422248 2.21894531,69.7134653 1.784375,66.1796128 C-0.593945312,46.8330737 -0.593945312,27.4886736 1.784375,8.14213448 C2.21894531,4.60828204 5.09824219,1.87971702 8.665625,1.62515985 C9.25722656,1.583155 9.84882813,1.54290035 10.4402344,1.50284017 C9.14453125,2.73284329 8.2671875,4.39767439 8.03574219,6.27291867 C5.50253906,26.8654072 5.50253906,47.4559511 8.03574219,68.0486342 C8.2671875,69.9238785 9.14453125,71.5887096 10.4402344,72.8187127 Z" id="Path" fill="#544F57"></path>
                            <path d="M7.09550781,59.211475 C7.26171875,60.9513703 8.67578125,62.310305 10.4273438,62.4246516 C23.5796875,63.2841952 36.875,63.72019 50.0001953,63.72019 C63.1253906,63.72019 76.4207031,63.2841952 89.5730469,62.4246516 C91.3246094,62.3101105 92.7386719,60.9511759 92.9048828,59.211475 C94.5039062,42.4711812 94.2775391,25.5681186 92.2246094,8.87410787 C92.1412109,8.19677968 91.5871094,7.66996885 90.9070313,7.6215466 C77.3345703,6.65815759 63.5716797,6.16946228 50,6.16946228 C36.4283203,6.16946228 22.6654297,6.65815759 9.09335937,7.6215466 C8.41308594,7.66977439 7.85898437,8.19658521 7.77578125,8.87410787 C5.72265625,25.5681186 5.49648437,42.4713757 7.09550781,59.211475 Z" id="Path" fill="#F9F6F9"></path>
                            <path d="M50,65.2228357 C36.8609375,65.2228357 23.5134766,64.7858686 10.3283203,63.9239913 C7.821875,63.7602502 5.83046875,61.8381394 5.59316406,59.3538248 C5.59316406,59.3536303 5.59316406,59.3536303 5.59316406,59.3536303 C3.984375,42.5120192 4.21484375,25.4668013 6.27792969,8.69150346 C6.44882813,7.30262089 7.58769531,6.22216281 8.98613281,6.12298469 C22.5943359,5.15687315 36.3933594,4.66701104 50,4.66701104 C63.6066406,4.66701104 77.4056641,5.15687315 91.0138672,6.12298469 C92.4123047,6.22235728 93.5511719,7.30262089 93.7220703,8.69150346 C95.7851562,25.4668013 96.0154297,42.5118248 94.4068359,59.3538248 C94.1695313,61.8383339 92.178125,63.7602502 89.6716797,63.9241858 C76.4865234,64.7858686 63.1390625,65.2228357 50,65.2228357 L50,65.2228357 Z M8.59765625,59.0693197 C8.69394531,60.078214 9.50507813,60.8588041 10.5259766,60.9255062 C23.6457031,61.7829108 36.9265625,62.2177388 50,62.2177388 C63.0734375,62.2177388 76.3542969,61.7829108 89.4740234,60.9255062 C90.4949219,60.8588041 91.3060547,60.078214 91.4023437,59.0693197 C92.9884766,42.4628191 92.7636719,25.6571844 90.7335937,9.11583023 C77.2175781,8.15769183 63.5138672,7.67210799 50,7.67210799 C36.4861328,7.67210799 22.7826172,8.15769183 9.26640625,9.11583023 C7.23632812,25.65699 7.01152344,42.4626247 8.59765625,59.0693197 Z" id="Shape" fill="#544F57"></path>
                            <path d="M50,70.669659 C49.1666016,70.669659 48.4910156,69.996998 48.4910156,69.1672078 L48.4910156,69.0670573 C48.4910156,68.2372671 49.1666016,67.5646061 50,67.5646061 C50.8333984,67.5646061 51.5089844,68.2372671 51.5089844,69.0670573 L51.5089844,69.1672078 C51.5089844,69.996998 50.8333984,70.669659 50,70.669659 Z" id="Path" fill="#544F57"></path>
                            <path d="M73.6236328,92.0178459 L26.3763672,92.0178459 C24.4548828,92.0178459 22.8970703,90.466778 22.8970703,88.5536127 C22.8970703,86.6404473 24.4548828,85.0893794 26.3763672,85.0893794 L73.6236328,85.0893794 C75.5451172,85.0893794 77.1029297,86.6404473 77.1029297,88.5536127 C77.1029297,90.466778 75.5451172,92.0178459 73.6236328,92.0178459 Z" id="Path" fill="#665E66"></path>
                            <path d="M35.7582031,92.017457 L26.3759766,92.017457 C24.4544922,92.017457 22.8970703,90.466778 22.8970703,88.5536127 C22.8970703,87.5980023 23.2873047,86.7304855 23.9152344,86.1035242 C24.5451172,85.4785076 25.4162109,85.0897683 26.3759766,85.0897683 L35.7582031,85.0897683 C34.7964844,85.0897683 33.9273438,85.4785076 33.2974609,86.1035242 C32.6675781,86.7304855 32.2792969,87.5980023 32.2792969,88.5536127 C32.2792969,90.466778 33.8367188,92.017457 35.7582031,92.017457 L35.7582031,92.017457 Z" id="Path" fill="#544F57"></path>
                        </g>
                        <g id="netflix-copy" transform="translate(39.169864, 16.183802)">
                            <g id="Group" transform="translate(0.546448, 0.000000)" fill="#D32F2F">
                                <rect id="Rectangle" x="14.1843972" y="0" width="7.09219858" height="37.2931097"></rect>
                                <rect id="Rectangle" x="0" y="0" width="7.09219858" height="37.2931097"></rect>
                            </g>
                            <polygon id="Path" fill="#F44336" points="21.8230438 37.2931097 14.7308453 37.2931097 0.546448087 0 7.63864667 0"></polygon>
                        </g>
                    </g>
                </g>
                <g id="popcorn" transform="translate(0.000000, 43.000000)">
                    <path d="M39.9676062,17.7943383 C39.9066186,17.7925463 39.8453938,17.7917101 39.783813,17.7920685 C39.6496167,17.7927853 39.5170815,17.8000726 39.3857329,17.8110634 C39.3856143,17.8110634 39.3854956,17.810944 39.3856143,17.8108245 C39.6376328,17.2666606 39.7765752,16.6663481 39.7724223,16.035572 C39.7565229,13.5984823 37.6265867,11.6349526 35.0152763,11.6498858 C34.88108,11.6506026 34.7485448,11.65789 34.6171962,11.6688808 C34.6170775,11.6688808 34.6169589,11.6687613 34.6169589,11.6686418 C34.8689774,11.1244779 35.0079198,10.5241654 35.0037669,9.89338927 C34.9878675,7.45629964 32.8579313,5.49276997 30.2466209,5.50758365 C30.0395717,5.5087783 29.8360822,5.52371145 29.6361523,5.5489186 C29.6361523,5.53625529 29.6369829,5.52371145 29.6369829,5.51104814 C29.6220326,3.23117468 27.6294964,1.39415863 25.1865542,1.40813606 C24.7628451,1.41052536 24.353849,1.46966062 23.9665663,1.57562624 C23.9665663,1.57562624 23.9664476,1.57562624 23.966329,1.57550677 C23.3360454,0.71033995 22.3123092,0.117553735 21.137172,0.0155304732 L21.137172,0 C21.0910161,0.000955721426 21.0455721,0.00430074642 20.9998907,0.00680951516 C20.9542094,0.0044202116 20.9087654,0.000955721426 20.8626095,0 L20.8626095,0.0155304732 C19.6874723,0.117673201 18.6637361,0.71033995 18.0335711,1.57550677 C18.0335711,1.57562624 18.0335711,1.5757457 18.0335711,1.5757457 C17.6461698,1.46966062 17.2372923,1.41064483 16.8135832,1.40813606 C14.370641,1.3942781 12.3781048,3.23117468 12.3631546,5.51104814 C12.3630359,5.52371145 12.3638665,5.53625529 12.3639851,5.5489186 C12.1640552,5.52371145 11.9605657,5.5087783 11.7535166,5.50758365 C9.14220609,5.4926505 7.01226996,7.45629964 6.99637049,9.89338927 C6.99221764,10.5242849 7.13116005,11.1244779 7.38317856,11.6686418 C7.38317856,11.6687613 7.38317856,11.6688808 7.38294126,11.6688808 C7.25159262,11.65789 7.11905746,11.6506026 6.98486117,11.6498858 C4.37355069,11.6349526 2.24361456,13.5986018 2.22771509,16.035572 C2.22356224,16.6664676 2.36250465,17.2666606 2.61452316,17.8108245 C2.61452316,17.810944 2.61452316,17.8110634 2.61428586,17.8110634 C2.48293723,17.8000726 2.35040207,17.7927853 2.21620577,17.7920685 C2.15474363,17.7917101 2.09340014,17.7924269 2.03241261,17.7943383 C-0.486823309,17.8698403 -0.638461568,21.0908604 1.43511449,21.6918897 C1.31669901,21.9685711 1.25084672,22.2702207 1.25084672,22.5863255 C1.25084672,23.919318 2.40877924,25 3.83712145,25 C4.50762834,25 12.5340146,25 20.8627281,25 C20.9542094,25 21.0456907,25 21.137172,25 C29.4658855,25 37.4922718,25 38.1627787,25 C39.5911209,25 40.7490534,23.9194375 40.7490534,22.5863255 C40.7490534,22.2702207 40.6833198,21.9685711 40.5647856,21.6918897 C42.6384803,21.0909799 42.4868421,17.8698403 39.9676062,17.7943383 Z" id="Path" fill="#FEC93E"></path>
                    <path d="M39.9531564,17.7944233 C39.8917353,17.7926314 39.8300752,17.7917951 39.7680565,17.7921535 C39.6329061,17.7928703 39.4994287,17.8001577 39.3671462,17.8111485 C39.3670267,17.8111485 39.3669072,17.8110291 39.3670267,17.8109096 C39.620837,17.2667431 39.7607673,16.6664277 39.7565849,16.0356486 C39.7405724,13.5985473 37.595493,11.6350082 34.9656169,11.6499415 C34.8304665,11.6506583 34.696989,11.6579457 34.5647065,11.6689365 C34.564587,11.6689365 34.5644675,11.6688171 34.5644675,11.6686976 C34.8182778,11.1245311 34.9582081,10.5242157 34.9540257,9.89343655 C34.9380132,7.45633527 32.7929338,5.49279622 30.1630577,5.50760997 C29.9545365,5.50880463 29.7496002,5.52373784 29.5482489,5.54894512 C29.5482489,5.53628175 29.5490853,5.52373784 29.5490853,5.51107447 C29.5340288,3.23119012 27.5273262,1.39416529 25.0670154,1.40802332 C24.6402939,1.41041263 24.2283899,1.46954818 23.8383537,1.5755143 C23.8383537,1.5755143 23.8382342,1.5755143 23.8381147,1.57539483 C23.2034695,0.710223879 22.1724548,0.117554297 20.9889627,0.0154110816 L20.9889627,0 C20.9424787,0.000955725993 20.8967115,0.00430076697 20.8507054,0.0068095477 C20.8046993,0.00430076697 20.7589322,0.000955725993 20.7124481,0 L20.7124481,0.0155305474 C19.6102136,0.110625284 18.6407395,0.63149595 18,1.4014527 C18.0066918,1.40384202 18.0136226,1.40551454 18.0203144,1.40802332 C31.6489951,6.61278761 33.0312096,20.3603087 33.5081196,21.6918739 C33.627377,21.9685566 33.6936975,22.2702076 33.6936975,22.586314 C33.6936975,23.9193128 32.5275324,25 31.0890351,25 C34.9648999,25 37.7510773,25 38.1354971,25 C39.5739944,25 40.7401595,23.9193128 40.7401595,22.586314 C40.7401595,22.2702076 40.6739585,21.9685566 40.5545817,21.6918739 C42.6430197,21.0910807 42.4903034,17.8699257 39.9531564,17.7944233 Z" id="Path" fill="#EFB533"></path>
                    <path d="M36.1307725,21 C34.1599934,21 32.5043314,22.520576 32.2863911,24.5305828 L32.1912191,25.4085085 C32.4461904,23.056844 30.6525467,21 28.3469556,21 L28.2836256,21 C26.2031687,21 24.4953803,22.6888027 24.418252,24.8223775 L24.4076381,25.1165927 C24.4888939,22.8681639 22.7347578,21 20.5422646,21 L20.4577066,21 C18.2652133,21 16.5110772,22.8681639 16.592333,25.1165927 L16.5817191,24.8223775 C16.5045908,22.6888027 14.7968024,21 12.7163455,21 L12.6530155,21 C10.3474244,21 8.55378074,23.056844 8.80875198,25.4085085 L8.71358002,24.5305828 C8.49563975,22.520576 6.83997771,21 4.86919858,21 L4.86919858,21 C2.4503918,21 0.62502411,23.2526648 1.06597577,25.6932836 L7.23552515,59.8352004 C7.46219246,61.0898813 8.528661,62 9.77202911,62 L12.7760197,62 L17.9253303,62 L23.0746409,62 L28.2239514,62 L31.227942,62 C32.4713101,62 33.5377786,61.0898813 33.764446,59.8352004 L39.9339953,25.6932836 C40.3750649,23.2526648 38.5495793,21 36.1307725,21 Z" id="Path" fill="#EF4A50"></path>
                    <path d="M36.3457202,21.0044514 C34.9155479,20.9352242 33.6316272,21.6790531 32.915252,22.8447804 C33.4140076,23.6552948 33.6351429,24.6570312 33.449047,25.6933811 L28.252309,54.6346902 C27.811679,57.0883815 25.7391948,58.8683183 23.3227614,58.8683183 L23.3227614,58.8683183 L17.9367635,58.8683183 L12.5507655,58.8683183 L9.40869893,58.8683183 C8.36899975,58.8683183 7.44895035,58.255077 7,57.3347915 L7.44895035,59.83532 C7.67418726,61.0898807 8.73392572,62 9.96944741,62 L12.9544809,62 L18.0712962,62 L23.1881115,62 L24.7978171,62 L28.3049268,62 L31.2899603,62 C32.525482,62 33.5852204,61.0898807 33.8104574,59.835199 L34.2594077,57.3346705 L34.2594077,57.3346705 L39.927362,25.7696278 C40.3678747,23.3164206 38.7588723,21.121363 36.3457202,21.0044514 Z" id="Path" fill="#DD2A37"></path>
                    <path d="M29.0700141,62 L24,62 L25.3229203,24.8223888 C25.3988608,22.6888077 27.0803503,21 29.1287693,21 L29.1911241,21 C31.4612104,21 33.227233,23.0568501 32.9761881,25.4085215 L29.0700141,62 Z" id="SVGCleanerId_0" fill="#F2EBDA"></path>
                    <path d="M36.3457202,21.0044514 C34.9155479,20.9352242 33.6316272,21.6790531 32.915252,22.8447804 C33.4140076,23.6552948 33.6351429,24.6570312 33.449047,25.6933811 L28.252309,54.6346902 C27.811679,57.0883815 25.7391948,58.8683183 23.3227614,58.8683183 L23.3227614,58.8683183 L17.9367635,58.8683183 L12.5507655,58.8683183 L9.40869893,58.8683183 C8.36899975,58.8683183 7.44895035,58.255077 7,57.3347915 L7.44895035,59.83532 C7.67418726,61.0898807 8.73392572,62 9.96944741,62 L12.9544809,62 L18.0712962,62 L23.1881115,62 L24.7978171,62 L28.3049268,62 L31.2899603,62 C32.525482,62 33.5852204,61.0898807 33.8104574,59.835199 L34.2594077,57.3346705 L34.2594077,57.3346705 L39.927362,25.7696278 C40.3678747,23.3164206 38.7588723,21.121363 36.3457202,21.0044514 Z" id="Path" fill="#DD2A37"></path>
                    <path d="M29.0700141,62 L24,62 L25.3229203,24.8223888 C25.3988608,22.6888077 27.0803503,21 29.1287693,21 L29.1911241,21 C31.4612104,21 33.227233,23.0568501 32.9761881,25.4085215 L29.0700141,62 Z" id="SVGCleanerId_0_1_" fill="#F2EBDA"></path>
                    <path d="M28.9374531,54.691116 C28.507851,57.1259695 26.487236,58.8922411 24.13128,58.8922411 L24.13128,58.8922411 L24.1096856,58.8922411 L24,62 L25.5694186,62 L28.988754,62 L31,43 L28.9374531,54.691116 Z" id="Path" fill="#E5DECF"></path>
                    <g id="Group" transform="translate(8.000000, 4.000000)" fill="#FCDC97">
                        <path d="M0.966105769,12.3724706 C0.452884615,12.3724706 0.0368990385,11.9652941 0.0368990385,11.4629412 C0.0368990385,8.99835294 2.08545673,6.99317647 4.60336538,6.99317647 C5.11658654,6.99317647 5.53257212,7.40035294 5.53257212,7.90270588 C5.53257212,8.40505882 5.11658654,8.81223529 4.60336538,8.81223529 C3.11009615,8.81223529 1.8953125,10.0014118 1.8953125,11.4629412 C1.89519231,11.9652941 1.47920673,12.3724706 0.966105769,12.3724706 Z" id="Path"></path>
                        <path d="M24.0679087,15.9328235 C23.5546875,15.9328235 23.1387019,15.5256471 23.1387019,15.0232941 C23.1387019,13.5616471 21.9237981,12.3725882 20.430649,12.3725882 C19.9174279,12.3725882 19.5014423,11.9654118 19.5014423,11.4630588 C19.5014423,10.9607059 19.9174279,10.5535294 20.430649,10.5535294 C22.9486779,10.5535294 24.9971154,12.5587059 24.9971154,15.0232941 C24.9971154,15.5255294 24.5811298,15.9328235 24.0679087,15.9328235 Z" id="Path"></path>
                        <path d="M16.0064904,4.69870592 C15.5805288,4.69882353 15.1965144,4.41023529 15.1002404,3.98623529 C14.7763221,2.55941176 13.3274038,1.65647059 11.869351,1.97317647 C11.3680288,2.082 10.8719952,1.77270588 10.7608173,1.28247059 C10.6495192,0.792117647 10.9655048,0.306235294 11.4664663,0.197411765 C13.9242788,-0.336588235 16.3682692,1.18576471 16.9143029,3.59188235 C17.025601,4.08223529 16.7097356,4.568 16.2086538,4.67694118 C16.1411058,4.69164706 16.0731971,4.69870592 16.0064904,4.69870592 Z" id="Path"></path>
                    </g>
                    <path d="M18,62 L12.9299859,62 L9.02381186,25.4085085 C8.77276702,23.0569651 10.5387896,21 12.8088759,21 L12.8712307,21 C14.9196497,21 16.6011392,22.6888027 16.6770797,24.8223775 L18,62 Z" id="Path" fill="#F2EBDA"></path>
                    <polygon id="Path" fill="#E5DECF" points="18.8518789 59 13 59 13.3711407 62 13.3711407 62 19 62 18.8761146 59"></polygon>
                    <ellipse id="Oval" fill="#9AD9D4" cx="21" cy="42.5" rx="12" ry="8.5"></ellipse>
                </g>
            </g>
        </g>
    </g>
</svg>