<?xml version="1.0" encoding="UTF-8"?>
<svg width="115px" height="101px" viewBox="0 0 115 101" version="1.1" xmlns="http://www.w3.org/2000/svg" xmlns:xlink="http://www.w3.org/1999/xlink">
    <!-- Generator: Sketch 63.1 (92452) - https://sketch.com -->
    <title>Group 15</title>
    <desc>Created with Sketch.</desc>
    <defs>
        <polygon id="path-1" points="4.35131838e-05 0.211923077 115.759775 0.211923077 115.759775 95.1794283 4.35131838e-05 95.1794283"></polygon>
    </defs>
    <g id="Page-1" stroke="none" stroke-width="1" fill="none" fill-rule="evenodd">
        <g id="Home" transform="translate(-690.000000, -4338.000000)">
            <g id="Group-15" transform="translate(751.500000, 4391.870249) rotate(-12.000000) translate(-751.500000, -4391.870249) translate(693.000000, 4343.370249)">
                <g id="Group-14" transform="translate(0.500599, 0.265843)">
                    <g id="Group-3">
                        <mask id="mask-2" fill="white">
                            <use xlink:href="#path-1"></use>
                        </mask>
                        <g id="Clip-2"></g>
                        <path d="M79.6524906,63.9545427 C79.7273453,63.6320726 79.7432085,63.4325427 79.8183111,63.2582949 C81.7856017,58.7092607 83.0777128,53.9604487 84.0942,49.1211667 C85.1622427,44.0357564 84.7654137,39.3461838 81.0796872,35.2599103 C75.8968667,29.5136966 66.3687556,29.6249872 61.3929009,35.5513974 C59.8202085,37.4245 58.8049607,39.5519103 58.1466359,41.9108248 C57.401559,38.5607051 55.6965077,35.8941923 53.0503197,33.7873547 C49.0252684,30.5819872 43.267653,30.082047 38.6400462,32.5904231 C34.0570547,35.0747564 31.1558154,40.5267564 31.7410205,45.5809359 C32.4169436,51.4196026 34.0144222,57.0180897 36.1733111,62.4686026 C36.3483026,62.9097991 36.5213111,63.3514915 36.7860291,64.0232009 C36.0144308,63.7369188 35.4949094,63.5277222 34.9644821,63.3500043 C31.2413282,62.1012692 27.3880462,64.8560214 27.4320341,68.7544145 C27.4690974,71.9962179 28.9676786,74.7016453 30.7874906,77.2209274 C35.2212684,83.3590128 41.0529949,87.7489188 48.0717385,90.525235 C54.1647128,92.9354573 60.377653,93.2700726 66.670653,91.2487479 C73.7714393,88.9679103 79.6309265,84.8553632 84.3864308,79.1701239 C86.5111145,76.6297735 88.2419436,73.8356111 88.8943197,70.4988761 C89.3895504,67.9657137 88.7460974,65.8821752 86.6655333,64.2591667 C84.6984906,62.7243974 82.6444479,62.5337906 80.4394564,63.6583462 C80.2334821,63.7634402 80.0044564,63.8236709 79.6524906,63.9545427 M26.9852684,0.211799145 L28.2218581,0.211799145 C29.155559,0.337465812 30.0962,0.424465812 31.0217214,0.5945 C40.6336103,2.35928632 45.6134308,10.3694829 44.3560205,20.0143376 C44.1753282,21.400141 43.8206359,22.7636368 43.5078325,24.3313718 C53.1906103,20.5018846 62.6825333,20.5363376 72.3187128,24.3241838 C72.2081658,23.7650043 72.1692513,23.4502179 72.0824991,23.149312 C71.3582427,20.6312692 71.1998581,18.0616709 71.3146188,15.4578675 C71.6147812,8.64286752 76.4986786,2.61582479 83.1096872,1.00744017 C84.5782769,0.650021368 86.0907385,0.472303419 87.5828752,0.211799145 L88.819465,0.211799145 C90.1866786,0.452722222 91.5665333,0.636884615 92.9186274,0.943987179 C99.3407641,2.40291026 104.568448,5.86332906 108.797491,10.8020043 C113.422619,16.2026966 116.142174,22.3826709 115.716097,29.6604316 C115.511115,33.1612521 114.394986,36.3626538 112.106217,39.0549444 C107.623362,44.3279872 101.787174,45.5747393 95.2368923,44.5416453 C94.1686017,44.3733462 93.1166701,44.1029274 92.0491231,43.8778675 C97.689747,61.3063718 94.5074308,76.3657991 79.7992256,87.6014402 C67.7396872,96.8137735 54.3595333,97.3305684 40.711935,90.7574829 C22.5547128,79.7035256 17.6512342,63.8288761 23.6562171,43.8686966 C23.1096786,43.9938675 22.5611573,44.1170556 22.0138752,44.2452009 C17.6076103,45.2787906 13.2630632,45.2267393 9.1096188,43.2582094 C2.42177265,40.0887821 -0.808381197,33.5600641 0.172661538,25.5897735 C1.54408889,14.4460897 10.8295419,4.09829487 21.6938838,1.25827778 C23.4301658,0.804440171 25.2202342,0.55558547 26.9852684,0.211799145" id="Fill-1" fill="#202325" mask="url(#mask-2)"></path>
                    </g>
                    <path d="M63.3475177,57.1036728 C63.602535,59.0315843 63.7886286,61.0593805 64.1647216,63.0360029 C64.3737898,64.1350082 64.6400645,65.606734 65.83451,65.6403938 C67.1215429,65.6767901 67.3221105,64.1330926 67.6127383,63.0124684 C68.3895069,60.0189377 68.4083461,56.9216911 68.0896894,53.8564624 C67.9339221,52.3584656 67.5185427,50.8429547 66.9749655,49.4741239 C66.3992239,48.0242906 65.4432539,48.0836742 64.7491935,49.4853438 C64.4452405,50.0994294 64.1948182,50.7961594 64.0843107,51.4920684 C63.7957507,53.3102436 63.5977103,55.148122 63.3475177,57.1036728 M46.893617,56.9680259 C46.938941,56.9748222 46.9840252,56.9821622 47.0291094,56.9889584 C47.0761121,58.0233508 46.9969749,59.0900933 47.1984149,60.0842517 C47.5235966,61.6898026 47.9036946,63.3146549 48.5070553,64.8033099 C48.9677294,65.9415493 49.9641379,65.8931598 50.5684578,64.8204365 C50.9454383,64.1511398 51.3255364,63.3706562 51.3876471,62.6067554 C51.6226604,59.7115443 51.8946044,56.7967599 51.8159468,53.901277 C51.7737404,52.3509118 51.1816507,50.7518853 50.583326,49.3105324 C50.0754095,48.0874756 49.1070587,48.1393991 48.4542973,49.291231 C48.0965015,49.9230122 47.7972192,50.6551065 47.6708396,51.3863851 C47.3516532,53.2333395 47.1451772,55.105576 46.893617,56.9680259 M59.6719552,68.9230769 C57.3600869,68.9195472 55.2348173,69.4650135 53.4742874,70.9666294 C51.2961569,72.8239512 51.286642,75.60246 53.4164048,77.4904373 C56.5148422,80.2370238 62.5296116,80.2985883 65.6986183,77.6158464 C68.0599116,75.616901 68.0530396,72.830285 65.6499864,70.8533812 C63.9372955,69.444492 61.8878812,68.9350016 59.6719552,68.9230769 M80.7071245,63.4112096 C81.0736516,63.273436 81.3121523,63.2100289 81.5266481,63.0993926 C83.8228628,61.9155316 85.9618839,62.1161904 88.0103057,63.7318984 C90.1769454,65.4407601 90.8470189,67.6339168 90.3312998,70.3009309 C89.6519341,73.8136346 87.8494984,76.7548912 85.6369138,79.4292115 C80.6846682,85.4145329 74.5827666,89.7437015 67.1879536,92.1448231 C60.6348623,94.273007 54.1648848,93.9204841 47.8198364,91.3834155 C40.5104603,88.4604244 34.4377259,83.8390089 29.8205171,77.3774815 C27.9254172,74.7253406 26.3648378,71.8772378 26.3262411,68.4644721 C26.2804333,64.3602293 30.2928725,61.4604613 34.170316,62.7747897 C34.7226878,62.9621409 35.2637025,63.1821089 36.0672228,63.4837495 C35.7915531,62.7766163 35.6111289,62.3113696 35.4291559,61.8469057 C33.1806929,56.1089504 31.5173827,50.2152171 30.8134958,44.0686379 C30.20408,38.7479173 33.2253473,33.0083964 37.9979429,30.3933083 C42.8169997,27.7523876 48.8125569,28.2789539 53.0043878,31.6531013 C55.760052,33.8710467 57.5356434,36.6781828 58.3115452,40.204977 C58.9971057,37.7219219 60.0543556,35.4820579 61.6921122,33.5104349 C66.8738244,27.2712239 76.7961256,27.1540642 82.193366,33.2033147 C86.0315757,37.505346 86.4448221,42.4419707 85.3325931,47.7955691 C84.2740525,52.8900593 82.9284851,57.8893083 80.8798052,62.6785048 C80.8015956,62.861681 80.785076,63.0719944 80.7071245,63.4112096" id="Fill-4" fill="#F4D6B8"></path>
                    <path d="M58.4050249,71.3846154 C57.9242704,71.4808028 57.3560045,71.5067442 56.8560198,71.7134013 C55.9285119,72.0972764 55.1375661,72.6685711 55.1208442,73.8825723 C55.1046797,75.079085 55.7980811,75.8745254 56.7587541,76.1062495 C57.7810194,76.3525475 58.931486,76.3787804 59.9557022,76.1528858 C60.970164,75.9296145 61.727666,75.1312593 61.7014684,73.8650837 C61.674992,72.5802536 60.7940267,72.0453935 59.827501,71.6469446 C59.4116832,71.4755562 58.9312073,71.4755562 58.4050249,71.3846154 M59.6756457,68.1025641 C62.1236535,68.1166157 64.3890831,68.7041969 66.2820533,70.3301306 C68.938054,72.6111734 68.9456493,75.8264996 66.3358043,78.1326828 C62.8332252,81.2281541 56.1853359,81.1571182 52.7607541,77.9879799 C50.4068106,75.8095445 50.4173271,72.6035729 52.8244374,70.4605093 C54.7705743,68.7281679 57.1195517,68.0984913 59.6756457,68.1025641" id="Fill-6" fill="#000000"></path>
                    <path d="M59.827501,71.6469446 C60.7940267,72.0453935 61.674992,72.5802536 61.7014684,73.8650837 C61.727666,75.1312593 60.970164,75.9296145 59.9557022,76.1528858 C58.931486,76.3787804 57.7810194,76.3525475 56.7587541,76.1062495 C55.7980811,75.8745254 55.1046797,75.079085 55.1208442,73.8825723 C55.1375661,72.6685711 55.9285119,72.0972764 56.8560198,71.7134013 C57.3560045,71.5067442 57.9242704,71.4808028 58.4050249,71.3846154 C58.9312073,71.4755562 59.4116832,71.4755562 59.827501,71.6469446 Z" id="Fill-8" fill="#E5E5E5"></path>
                    <path d="M53.1071295,56.6152429 C53.1071295,61.59999 51.6143704,65.6410256 49.7730496,65.6410256 C47.9314597,65.6410256 46.4389698,61.59999 46.4389698,56.6152429 C46.4389698,51.6304957 47.9314597,47.5897436 49.7730496,47.5897436 C51.6143704,47.5897436 53.1071295,51.6304957 53.1071295,56.6152429" id="Fill-10" fill="#000000"></path>
                    <path d="M69.1929825,56.6152429 C69.1929825,61.59999 67.7002234,65.6410256 65.8589026,65.6410256 C64.0173126,65.6410256 62.5248227,61.59999 62.5248227,56.6152429 C62.5248227,51.6304957 64.0173126,47.5897436 65.8589026,47.5897436 C67.7002234,47.5897436 69.1929825,51.6304957 69.1929825,56.6152429" id="Fill-10-Copy" fill="#000000"></path>
                </g>
            </g>
        </g>
    </g>
</svg>