<?xml version="1.0" encoding="UTF-8"?>
<svg width="98px" height="97px" viewBox="0 0 98 97" version="1.1" xmlns="http://www.w3.org/2000/svg" xmlns:xlink="http://www.w3.org/1999/xlink">
    <!-- Generator: Sketch 63.1 (92452) - https://sketch.com -->
    <title>rugby</title>
    <desc>Created with Sketch.</desc>
    <g id="Page-1" stroke="none" stroke-width="1" fill="none" fill-rule="evenodd">
        <g id="Home" transform="translate(-1173.000000, -4041.000000)" fill-rule="nonzero">
            <g id="rugby" transform="translate(1173.000000, 4041.000000)">
                <path d="M97.6584507,74.1161875 C97.6584507,81.083125 96.6832632,87.8220625 94.8632007,94.2049375 C88.4805132,96.025 81.7413882,97 74.7746382,97 C34.3937007,97 1.6584507,64.26475 1.6584507,23.8838125 C1.6584507,16.916875 2.6338257,10.1779375 4.4537007,3.7950625 C10.8363882,1.975375 17.5755132,1 24.5422632,1 C64.9232007,1 97.6584507,33.73525 97.6584507,74.1161875 Z" id="Path" fill="#A56247"></path>
                <path d="M24.057203,20.9453125 C24.057203,14.0539375 25.0204498,7.385875 26.8165451,1.0645 C25.7907449,1.0223125 24.7598421,1 23.7234589,1 C16.7016032,1 9.90917296,1.975375 3.47581061,3.79525 C1.64154074,10.178125 0.658450704,16.9170625 0.658450704,23.8838125 C0.658450704,64.26475 33.6526304,97 74.3529736,97 C81.3750183,97 88.1672595,96.0248125 94.6006219,94.20475 C94.6204651,94.13575 94.6387965,94.066 94.6584507,93.9968125 C55.3928671,92.38825 24.057203,60.298 24.057203,20.9453125 Z" id="Path" fill="#8C4D37"></path>
                <g id="Group" transform="translate(1.658451, 0.000000)" fill="#EAEAE4">
                    <path d="M41.9005984,2.15338583 C37.1714646,9.73398425 31.2515906,17.2197165 24.2356535,24.2354646 C23.9000315,24.5710866 23.5623307,24.9048189 23.2227402,25.2366614 C16.4991496,31.816063 9.36888189,37.3982362 2.1535748,41.9004094 C1.24327559,38.5298268 0.569952756,35.0622992 0.147401575,31.5178583 C6.12850394,27.783874 12.0364724,23.112 17.5732913,17.5731024 C19.6822677,15.464126 21.6667087,13.2999685 23.5207559,11.1002835 C26.5339843,7.52428346 29.2057323,3.84944882 31.5178583,0.147212598 C35.0624882,0.569574803 38.5300157,1.24308661 41.9005984,2.15338583 Z" id="Path"></path>
                    <path d="M95.8529764,64.4819528 C89.8699843,68.2140472 83.9639055,72.887811 78.4250079,78.4267087 C75.232063,81.6196535 72.3274961,84.9329764 69.7249134,88.3154646 C67.8115276,90.7995591 66.0600945,93.3191811 64.4804409,95.8525984 C60.936,95.4300472 57.4686614,94.7546457 54.0978898,93.8464252 C56.1377008,90.5803465 58.3965354,87.3301417 60.8708031,84.1273701 C64.1348031,79.8997795 67.7720315,75.7570394 71.7647244,71.7643465 C78.7804724,64.7485984 86.2682835,58.8266457 93.8468031,54.0994016 C94.7550236,57.4699843 95.4304252,60.9375118 95.8529764,64.4819528 Z" id="Path"></path>
                </g>
                <g id="Group" transform="translate(0.658451, 11.000000)" fill="#B3B3B3">
                    <path d="M23.1077778,8.75877778 C23.1077778,10.6121556 23.1772087,12.4496667 23.311897,14.2694222 C16.5624932,20.8457778 9.40485095,26.4253667 2.16184282,30.9254556 C1.24804878,27.5564333 0.572140921,24.0905111 0.14796748,20.5477111 C6.15203252,16.8154556 12.0826829,12.1457444 17.6407588,6.60941111 C19.757832,4.50141111 21.7498916,2.33825556 23.6110569,0.139588889 C23.2783198,2.96593333 23.1077778,5.84157778 23.1077778,8.75877778 Z" id="Path"></path>
                    <path d="M69.9926016,77.3190222 C68.0718699,79.8019667 66.3137127,82.3204222 64.7279946,84.8526667 C61.1699458,84.4303111 57.6892954,83.7552222 54.3055827,82.8474222 C56.3532249,79.5828556 58.6207317,76.3341556 61.1044986,73.1328667 C63.9568564,74.7176444 66.9241734,76.1169333 69.9926016,77.3190222 Z" id="Path"></path>
                </g>
                <path d="M31.3258565,33.8894265 L63.769039,66.332732 C64.6587263,67.2224227 66.1014979,67.2224227 66.9911852,66.332732 L66.9911852,66.332732 C67.8808725,65.4430413 67.8808725,64.0002642 66.9911852,63.1105735 L34.5480028,30.667268 C33.6583154,29.7775773 32.2155438,29.7775773 31.3258565,30.667268 L31.3258565,30.667268 C30.4359821,31.5569587 30.4359821,32.9995487 31.3258565,33.8894265 Z" id="Path" fill="#4D4D4D"></path>
                <g id="Group" transform="translate(29.658451, 29.000000)" fill="#723A2A">
                    <path d="M1.49190698,14.1933023 C1.11888372,14.1933023 0.745674419,14.0509767 0.461023256,13.7661395 C-0.108465116,13.1966512 -0.108465116,12.2736744 0.461023256,11.7043721 L11.6820465,0.483348837 C12.2515349,-0.0861395349 13.1746977,-0.0861395349 13.743814,0.483348837 C14.3133023,1.05283721 14.3133023,1.97581395 13.743814,2.54511628 L2.5227907,13.7661395 C2.23813953,14.0509767 1.86493023,14.1933023 1.49190698,14.1933023 Z" id="Path"></path>
                    <path d="M27.2645581,39.9661395 C26.8913488,39.9661395 26.5183256,39.823814 26.2334884,39.5389767 C25.664186,38.9694884 25.664186,38.0463256 26.2334884,37.4772093 L37.4546977,26.256186 C38.0245581,25.6868837 38.9475349,25.6870698 39.5166512,26.256186 C40.0859535,26.8254884 40.0859535,27.7488372 39.5166512,28.3179535 L28.2954419,39.5389767 C28.0109767,39.823814 27.6377674,39.9661395 27.2645581,39.9661395 Z" id="Path"></path>
                    <path d="M18.6736744,31.3752558 C18.3006512,31.3752558 17.9274419,31.2329302 17.6427907,30.948093 C17.0733023,30.3787907 17.0733023,29.4556279 17.6427907,28.8863256 L28.863814,17.6653023 C29.4334884,17.095814 30.3564651,17.096186 30.9257674,17.6653023 C31.4950698,18.2347907 31.4950698,19.1577674 30.9257674,19.7270698 L19.7045581,30.948093 C19.420093,31.2329302 19.0466977,31.3752558 18.6736744,31.3752558 Z" id="Path"></path>
                    <path d="M10.0827907,22.784186 C9.70976744,22.784186 9.33655814,22.6418605 9.05190698,22.3570233 C8.4824186,21.7875349 8.4824186,20.8643721 9.05190698,20.2952558 L20.2729302,9.07423256 C20.8420465,8.50474419 21.7653953,8.50474419 22.3348837,9.07423256 C22.904186,9.64372093 22.904186,10.5666977 22.3348837,11.136 L11.1138605,22.3570233 C10.8290233,22.6420465 10.456,22.784186 10.0827907,22.784186 Z" id="Path"></path>
                </g>
                <g id="Group" transform="translate(8.658451, 40.000000)" fill="#A56247">
                    <path d="M42.392381,48.9850382 C41.7933333,48.9850382 41.2432381,48.6227748 41.0131429,48.0802214 C40.7598095,47.4824962 40.9508571,46.7617099 41.4731429,46.3648473 C42.4961905,45.5875802 44.0384762,46.4241336 43.8729524,47.6996298 C43.7790476,48.4243435 43.1384762,48.9850382 42.392381,48.9850382 Z" id="Path"></path>
                    <path d="M1.56361905,7.06946565 C0.976952381,7.06946565 0.430095238,6.72010687 0.196190476,6.19120611 C-0.0668571429,5.59666031 0.104952381,4.87699618 0.620571429,4.4679771 C1.6607619,3.64264504 3.26114286,4.53717557 3.03561905,5.84596183 C2.91542857,6.54262214 2.28514286,7.06946565 1.56361905,7.06946565 Z" id="Path"></path>
                    <path d="M4.18095238,13.2251374 C3.54209524,13.2251374 2.96514286,12.813313 2.76361905,12.2197023 C2.56495238,11.6339466 2.77561905,10.9627214 3.2792381,10.591855 C4.336,9.81365267 5.8847619,10.723145 5.65028571,12.0107977 C5.52419048,12.7033435 4.90114286,13.2251374 4.18095238,13.2251374 Z" id="Path"></path>
                    <path d="M7.16628571,2.96562214 C6.51466667,2.96562214 5.92838095,2.53752672 5.73752381,1.92614885 C5.548,1.31869847 5.79657143,0.633446565 6.33638095,0.28240458 C7.46285714,-0.450164122 8.96933333,0.608385496 8.60285714,1.89173664 C8.424,2.51845038 7.83161905,2.96562214 7.16628571,2.96562214 Z" id="Path"></path>
                </g>
            </g>
        </g>
    </g>
</svg>