<?xml version="1.0" encoding="UTF-8"?>
<svg width="108px" height="113px" viewBox="0 0 108 113" version="1.1" xmlns="http://www.w3.org/2000/svg" xmlns:xlink="http://www.w3.org/1999/xlink">
    <!-- Generator: Sketch 63.1 (92452) - https://sketch.com -->
    <title>passport</title>
    <desc>Created with Sketch.</desc>
    <g id="Page-1" stroke="none" stroke-width="1" fill="none" fill-rule="evenodd">
        <g id="Home" transform="translate(-691.000000, -4017.000000)" fill-rule="nonzero">
            <g id="passport" transform="translate(691.000000, 4017.000000)">
                <path d="M102.287443,12.2332042 C106.397724,13.3348553 108.837021,17.5610628 107.735473,21.6726254 L84.8027993,107.285661 C83.7014916,111.397224 79.4766019,113.837282 75.3663213,112.73539 L30.712557,100.766555 C26.6022764,99.6649038 24.1629786,95.4386963 25.2645271,91.3271338 L48.1972007,5.7143387 C49.2985084,1.60277615 53.5233981,-0.837282439 57.6336787,0.264609581 L102.287443,12.2332042 Z" id="Path" fill="#F5F9EC"></path>
                <path d="M67.8000295,24 L43.4389506,24 L25.2648545,91.4270967 C24.1616985,95.5196466 26.6053312,99.7265577 30.7225099,100.823179 L75.4509731,112.736647 C79.5679106,113.833268 83.7998907,111.40507 84.9030467,107.31228 L99,55.0146712 L67.8000295,24 Z" id="Path" fill="#E4E8DB"></path>
                <path d="M102.268864,12.2546934 C106.392513,13.3583015 108.839744,17.5920162 107.734613,21.7108824 L97.7314256,59 L38,43.013607 L48.003187,5.72448941 C49.1080765,1.60562325 53.3467068,-0.838769752 57.4703553,0.265079622 L102.268864,12.2546934 Z" id="Path" fill="#DCC69F"></path>
                <g id="Group" transform="translate(48.000000, 56.000000)" fill="#C8BEB2">
                    <polygon id="Rectangle" transform="translate(5.468966, 28.316514) rotate(104.999329) translate(-5.468966, -28.316514) " points="-7.96285209 26.4242647 18.9059455 26.3881392 18.9007846 30.2087627 -7.96801302 30.2448883"></polygon>
                    <polygon id="Rectangle" transform="translate(11.894971, 4.212555) rotate(104.999329) translate(-11.894971, -4.212555) " points="8.05916858 2.30740353 15.7359336 2.297082 15.7307727 6.11770553 8.05400765 6.12802707"></polygon>
                    <polygon id="Rectangle" transform="translate(22.970043, 7.183287) rotate(104.999329) translate(-22.970043, -7.183287) " points="19.1342409 5.27813611 26.8110059 5.26781457 26.805845 9.08843811 19.12908 9.09875964"></polygon>
                    <polygon id="Rectangle" transform="translate(34.028129, 10.169352) rotate(104.999329) translate(-34.028129, -10.169352) " points="30.1923268 8.26420106 37.8690918 8.25387953 37.8639309 12.0745031 30.1871659 12.0848246"></polygon>
                    <polygon id="Rectangle" transform="translate(16.528520, 31.300724) rotate(104.999329) translate(-16.528520, -31.300724) " points="3.0967018 29.4084752 29.9654994 29.3723496 29.9603385 33.1929732 3.09154087 33.2290987"></polygon>
                    <polygon id="Rectangle" transform="translate(27.610017, 34.287077) rotate(104.999329) translate(-27.610017, -34.287077) " points="14.1781984 32.394828 41.046996 32.3587025 41.0418351 36.179326 14.1730374 36.2154515"></polygon>
                </g>
                <path d="M89.0961844,16.8652546 L85.9366102,16 L74.6513944,26.7520678 C71.6938403,25.9423845 68.3761323,25.0337453 67.8060876,24.8777558 C65.6997843,24.3010819 63.3110823,24.8004922 63.0289221,25.8765764 C62.7467619,26.9529044 64.570905,28.6059062 66.6772083,29.1825801 C67.2470145,29.3385697 70.5649609,30.2469651 73.5225151,31.0568922 L78.0349318,46.1347454 L81.194506,47 L80.8946959,33.0757383 C82.9702311,33.6441252 85.08846,34.2239677 86.4773179,34.6041922 L88.9304182,39.0247901 L91.0367215,39.601464 L90.6746597,33.4462135 L94,28.3007516 L91.8936967,27.7240777 L87.6064357,30.2991241 C86.2178163,29.9188996 84.0995874,29.3388134 82.0238137,28.7706702 L89.0961844,16.8652546 Z" id="Path" fill="#F5F9EC"></path>
                <polygon id="Path" fill="#CDB994" points="38 43.1795377 97.8831156 59 99 54.8887858 67.6722657 24 43.2122077 24"></polygon>
                <path d="M67.7543707,24.2385629 C65.6702954,23.6710609 63.3068332,24.1625603 63.0286261,25.2210823 C62.7494752,26.279844 64.5532197,27.9061077 66.6382389,28.47337 C67.2012601,28.6270535 70.4838203,29.5208632 73.4093598,30.3170923 L77.874359,45.1491066 L81,46 L80.7925835,36.3872301 L69.2310626,24.6406334 C68.497436,24.4409168 67.9525844,24.292508 67.7543707,24.2385629 Z" id="Path" fill="#E4E8DB"></path>
                <path d="M61,1.26489705 L34.3416598,102 L30.6567957,101.000326 C26.5866363,99.8961215 24.1711489,95.6601196 25.261945,91.5390284 L47.9710074,5.72758185 C49.0615651,1.60649063 53.245215,-0.839222865 57.3153744,0.265222821 L61,1.26489705 Z" id="Path" fill="#EA672C"></path>
                <path d="M69,98.2727273 C69,102.540355 65.5674896,106 61.3333333,106 L3.83333333,106 C1.71613542,106 0,104.270298 0,102.136364 L0,24.8636364 C0,22.7297017 1.71613542,21 3.83333333,21 L61.3333333,21 C65.5674896,21 69,24.4596449 69,28.7272727 L69,98.2727273 Z" id="Path" fill="#125D9D"></path>
                <path d="M35,32 C22.2975312,32 12,42.2975312 12,55 C12,67.7024688 22.2975312,78 35,78 C47.7024688,78 58,67.7024688 58,55 C58,42.2975312 47.7027083,32 35,32 Z M52.0216771,46.375 L43.7325729,46.375 C42.9397917,42.4027083 41.701625,39.1920521 40.4373437,36.715 C45.502375,38.2265312 49.6605833,41.7388229 52.0216771,46.375 Z M40.75,55 C40.75,56.7111042 40.6218229,58.2830104 40.4457292,59.7916667 L29.5549896,59.7916667 C29.3781771,58.2830104 29.2497604,56.7108646 29.2497604,55 C29.2497604,53.2881771 29.3760208,51.7165104 29.5511563,50.2083333 L40.4493229,50.2083333 C40.6237396,51.7165104 40.75,53.2884167 40.75,55 Z M30.1906042,46.375 C31.2548333,41.5715937 33.0105,38.0820625 34.44225,35.8893958 C34.6312812,35.8838854 34.8090521,35.8333333 35,35.8333333 C35.1928646,35.8333333 35.3713542,35.8848438 35.5632604,35.8903542 C37.0017187,38.0971563 38.7509167,41.588125 39.8101146,46.375 L30.1906042,46.375 Z M29.5626563,36.715 C28.3029271,39.1867812 27.0638021,42.4010312 26.2703021,46.375 L17.9783229,46.375 C20.3396563,41.7388229 24.497625,38.2274896 29.5626563,36.715 Z M16.51375,50.2083333 L25.6881146,50.2083333 C25.5280729,51.7263333 25.4166667,53.3051875 25.4166667,55 C25.4166667,56.6957708 25.5309479,58.2727083 25.693625,59.7916667 L16.5135104,59.7916667 C16.1129271,58.2511458 15.8330937,56.6641458 15.8330937,55 C15.8333333,53.3360938 16.1131667,51.7488542 16.51375,50.2083333 Z M17.9783229,63.625 L26.2796458,63.625 C27.0808125,67.6061562 28.3206563,70.8443646 29.5571458,73.2833229 C24.4949896,71.7708333 20.3386979,68.2595 17.9783229,63.625 Z M34.44225,74.1106042 C33.0684792,71.9974792 31.2790312,68.4986042 30.1953958,63.625 L39.8050833,63.625 C38.723125,68.49525 36.9355937,71.9926875 35.5572708,74.1106042 C35.3682396,74.1161146 35.1914271,74.1666667 35.0004792,74.1666667 C34.8095312,74.1666667 34.6322396,74.1163542 34.44225,74.1106042 Z M40.4450104,73.2833229 C41.6831771,70.8419688 42.9223021,67.6063958 43.7215521,63.625 L52.0219167,63.625 C49.6615417,68.2592604 45.5062083,71.769875 40.4450104,73.2833229 Z M53.4864896,59.7916667 L44.3073333,59.7916667 C44.4692917,58.2727083 44.5833333,56.6957708 44.5833333,55 C44.5833333,53.3051875 44.4728854,51.7263333 44.3128437,50.2083333 L53.48625,50.2083333 C53.8868333,51.7488542 54.1666667,53.3358542 54.1666667,55 C54.1666667,56.6641458 53.8868333,58.2513854 53.4864896,59.7916667 Z" id="Shape" fill="#E7BE29"></path>
                <g id="Group" transform="translate(14.000000, 88.000000)" fill="#FFFFFF">
                    <path d="M0.0208639053,5.80032 L0.0208639053,0.30288 L2.11720118,0.30288 C2.48620118,0.30288 2.76786391,0.3204 2.96243195,0.35544 C3.23536095,0.40056 3.46389349,0.48624 3.64851479,0.61224 C3.83289349,0.73848 3.98136686,0.9156 4.09393491,1.14288 C4.20626036,1.3704 4.26254438,1.62048 4.26254438,1.89288 C4.26254438,2.3604 4.11213018,2.75616 3.81154438,3.07968 C3.51071598,3.40368 2.96752663,3.5652 2.18149112,3.5652 L0.756195266,3.5652 L0.756195266,5.80032 L0.0208639053,5.80032 Z M0.756195266,2.91648 L2.19289349,2.91648 C2.66791124,2.91648 3.00537278,2.82912 3.2050355,2.65392 C3.40469822,2.47896 3.50440828,2.23272 3.50440828,1.9152 C3.50440828,1.68528 3.44569822,1.48848 3.3280355,1.32456 C3.21061538,1.16088 3.05559172,1.05264 2.86369231,1.00008 C2.73972189,0.96768 2.51118935,0.95136 2.17760947,0.95136 L0.756195266,0.95136 L0.756195266,2.91648 L0.756195266,2.91648 Z" id="Shape"></path>
                    <path d="M4.01242012,5.80032 L6.14660355,0.30288 L6.93894675,0.30288 L9.21335503,5.80032 L8.37564497,5.80032 L7.72740828,4.1352 L5.40375148,4.1352 L4.79336095,5.80032 L4.01242012,5.80032 Z M5.61578698,3.54264 L7.49984615,3.54264 L6.91978107,2.02008 C6.74292308,1.5576 6.61143195,1.17768 6.5255503,0.88008 C6.45471006,1.23264 6.355,1.5828 6.22617751,1.93008 L5.61578698,3.54264 Z" id="Shape"></path>
                    <path d="M9.55057396,4.03392 L10.2441775,3.97392 C10.276929,4.24896 10.3533491,4.47456 10.4734379,4.65072 C10.5935266,4.82688 10.7798462,4.96944 11.0326391,5.07816 C11.285432,5.18688 11.5695207,5.24136 11.8856331,5.24136 C12.1660828,5.24136 12.4137811,5.20008 12.6287278,5.11752 C12.843432,5.03496 13.0033077,4.92216 13.108355,4.77816 C13.2131598,4.6344 13.2655621,4.47768 13.2655621,4.30752 C13.2655621,4.13496 13.2151006,3.98448 13.1139349,3.8556 C13.0127692,3.72696 12.8461006,3.61896 12.6134438,3.53112 C12.4642426,3.47376 12.1345444,3.38448 11.6241065,3.26304 C11.1136686,3.14184 10.756071,3.0276 10.5513136,2.91984 C10.2859053,2.78256 10.0881834,2.61192 9.95814793,2.40792 C9.82786982,2.20416 9.76285207,1.97616 9.76285207,1.72344 C9.76285207,1.446 9.84242604,1.1868 10.001574,0.94536 C10.1607219,0.70416 10.3931361,0.52104 10.6990592,0.396 C11.0047396,0.27096 11.3446272,0.20856 11.7187219,0.20856 C12.1306627,0.20856 12.4938402,0.27408 12.808497,0.40536 C13.1231538,0.53664 13.3650296,0.72984 13.5343669,0.98472 C13.7037041,1.23984 13.7946805,1.52856 13.8072959,1.85088 L13.1022899,1.90344 C13.0644438,1.55616 12.9361065,1.2936 12.7175207,1.116 C12.4989349,0.93864 12.1760296,0.84984 11.7490473,0.84984 C11.304355,0.84984 10.9802367,0.93048 10.7766923,1.09176 C10.5731479,1.25304 10.471497,1.44744 10.471497,1.67496 C10.471497,1.87248 10.5435503,2.03496 10.6876568,2.1624 C10.8290947,2.28984 11.1985799,2.42064 11.796355,2.55432 C12.3938876,2.68824 12.8038876,2.80512 13.026355,2.90496 C13.3497456,3.05256 13.5884675,3.23952 13.7427633,3.4656 C13.8968166,3.69192 13.9739645,3.95256 13.9739645,4.24752 C13.9739645,4.54008 13.8892959,4.8156 13.7199586,5.07432 C13.5506213,5.33304 13.3072899,5.5344 12.9902071,5.67816 C12.6728817,5.82192 12.3160118,5.89368 11.919355,5.89368 C11.4164379,5.89368 10.9950355,5.82096 10.6551479,5.67624 C10.3152604,5.53128 10.0486391,5.31312 9.85528402,5.02176 C9.6624142,4.73088 9.56076331,4.40136 9.55057396,4.03392 Z" id="Path"></path>
                    <path d="M14.7287041,4.03392 L15.4223077,3.97392 C15.4550592,4.24896 15.5314793,4.47456 15.651568,4.65072 C15.7716568,4.82688 15.9579763,4.96944 16.2107692,5.07816 C16.4635621,5.18688 16.7476509,5.24136 17.0637633,5.24136 C17.344213,5.24136 17.5919112,5.20008 17.806858,5.11752 C18.0215621,5.03496 18.1814379,4.92216 18.2864852,4.77816 C18.3912899,4.6344 18.4436923,4.47768 18.4436923,4.30752 C18.4436923,4.13496 18.3932308,3.98448 18.2920651,3.8556 C18.1908994,3.72696 18.0242308,3.61896 17.791574,3.53112 C17.6423728,3.47376 17.3126746,3.38448 16.8022367,3.26304 C16.2917988,3.14184 15.9342012,3.0276 15.7294438,2.91984 C15.4640355,2.78256 15.2663136,2.61192 15.1362781,2.40792 C15.006,2.20416 14.9409822,1.97616 14.9409822,1.72344 C14.9409822,1.446 15.0205562,1.1868 15.1797041,0.94536 C15.3388521,0.70416 15.5712663,0.52104 15.8771893,0.396 C16.1828698,0.27096 16.5227574,0.20856 16.8968521,0.20856 C17.3087929,0.20856 17.6719704,0.27408 17.9866272,0.40536 C18.301284,0.53664 18.5431598,0.72984 18.712497,0.98472 C18.8818343,1.23984 18.9728107,1.52856 18.985426,1.85088 L18.2804201,1.90344 C18.242574,1.55616 18.1142367,1.2936 17.8956509,1.116 C17.6770651,0.93864 17.3541598,0.84984 16.9271775,0.84984 C16.4824852,0.84984 16.1583669,0.93048 15.9548225,1.09176 C15.7512781,1.25304 15.6496272,1.44744 15.6496272,1.67496 C15.6496272,1.87248 15.7216805,2.03496 15.865787,2.1624 C16.0072249,2.28984 16.3767101,2.42064 16.9744852,2.55432 C17.5720178,2.68824 17.9820178,2.80512 18.2044852,2.90496 C18.5278757,3.05256 18.7665976,3.23952 18.9208935,3.4656 C19.0749467,3.69192 19.1520947,3.95256 19.1520947,4.24752 C19.1520947,4.54008 19.067426,4.8156 18.8980888,5.07432 C18.7287515,5.33304 18.4854201,5.5344 18.1683373,5.67816 C17.8510118,5.82192 17.494142,5.89368 17.0974852,5.89368 C16.594568,5.89368 16.1731657,5.82096 15.8332781,5.67624 C15.4933905,5.53128 15.2267692,5.31312 15.0334142,5.02176 C14.8405444,4.73088 14.7386509,4.40136 14.7287041,4.03392 Z" id="Path"></path>
                    <path d="M20.1569586,5.80032 L20.1569586,0.30288 L22.2532959,0.30288 C22.6222959,0.30288 22.9039586,0.3204 23.0985266,0.35544 C23.3714556,0.40056 23.5999882,0.48624 23.7846095,0.61224 C23.9689882,0.73848 24.1174615,0.9156 24.2300296,1.14288 C24.342355,1.3704 24.3986391,1.62048 24.3986391,1.89288 C24.3986391,2.3604 24.2482249,2.75616 23.9476391,3.07968 C23.6468107,3.40368 23.1036213,3.5652 22.3175858,3.5652 L20.8922899,3.5652 L20.8922899,5.80032 L20.1569586,5.80032 Z M20.8922899,2.91648 L22.3289882,2.91648 C22.8040059,2.91648 23.1414675,2.82912 23.3411302,2.65392 C23.5407929,2.47896 23.640503,2.23272 23.640503,1.9152 C23.640503,1.68528 23.5817929,1.48848 23.4641302,1.32456 C23.3467101,1.16088 23.1916864,1.05264 22.999787,1.00008 C22.8758166,0.96768 22.647284,0.95136 22.3137041,0.95136 L20.8922899,0.95136 L20.8922899,2.91648 Z" id="Shape"></path>
                    <path d="M25.1114083,3.12264 C25.1114083,2.21016 25.3591065,1.49592 25.854503,0.97944 C26.3498994,0.46344 26.9891598,0.20496 27.7725266,0.20496 C28.2853905,0.20496 28.7480355,0.3264 29.1599763,0.5688 C29.5719172,0.81144 29.8858462,1.1496 30.1020059,1.58328 C30.3181657,2.0172 30.4261243,2.50896 30.4261243,3.0588 C30.4261243,3.61632 30.3123432,4.11504 30.0850237,4.55496 C29.8574615,4.99512 29.535284,5.32824 29.1184911,5.55432 C28.7014556,5.78064 28.2516686,5.89368 27.7688876,5.89368 C27.2458343,5.89368 26.7783373,5.76864 26.3663964,5.51856 C25.9544556,5.26872 25.6424675,4.92744 25.4301893,4.49472 C25.217426,4.06272 25.1114083,3.60528 25.1114083,3.12264 Z M25.8695444,3.13392 C25.8695444,3.79656 26.0495562,4.31856 26.4098225,4.69944 C26.7698462,5.0808 27.221574,5.27136 27.7650059,5.27136 C28.3183846,5.27136 28.7739941,5.07888 29.1315917,4.69392 C29.4891893,4.30896 29.6679882,3.76272 29.6679882,3.0552 C29.6679882,2.60784 29.591568,2.21712 29.4387278,1.88328 C29.2858876,1.54944 29.0622071,1.29072 28.7676864,1.10712 C28.4731657,0.92328 28.1427396,0.8316 27.7764083,0.8316 C27.2557811,0.8316 26.8079349,1.00848 26.4326272,1.36224 C26.0570769,1.716 25.8695444,2.30664 25.8695444,3.13392 Z" id="Shape"></path>
                    <path d="M31.3848935,5.80032 L31.3848935,0.30288 L33.8487751,0.30288 C34.3441716,0.30288 34.7206923,0.35232 34.9783373,0.45096 C35.2362249,0.54984 35.4419527,0.72432 35.5962485,0.97416 C35.7503018,1.22424 35.8274497,1.50048 35.8274497,1.80288 C35.8274497,2.19288 35.6998402,2.52168 35.4446213,2.78904 C35.1894024,3.05664 34.7951716,3.22656 34.261929,3.29904 C34.456497,3.39168 34.6042426,3.48288 34.7054083,3.57288 C34.9201124,3.768 35.1236568,4.0116 35.3157988,4.30416 L36.2823314,5.80032 L35.357284,5.80032 L34.6219527,4.65648 C34.4070059,4.32648 34.2301479,4.074 34.0911361,3.89904 C33.9521243,3.72408 33.8276686,3.60168 33.7177692,3.5316 C33.6078698,3.46176 33.4960296,3.41304 33.3822485,3.38544 C33.2987929,3.36816 33.1624497,3.35928 32.9727337,3.35928 L32.1197396,3.35928 L32.1197396,5.80056 L31.3848935,5.80056 L31.3848935,5.80032 Z M32.1202249,2.72904 L33.7010296,2.72904 C34.0370355,2.72904 34.3000178,2.69472 34.4894911,2.62584 C34.6789645,2.5572 34.823071,2.44728 34.921568,2.29584 C35.0200651,2.14464 35.0693136,1.98048 35.0693136,1.80264 C35.0693136,1.54272 34.9737278,1.32888 34.7830414,1.16136 C34.5921124,0.99408 34.2907988,0.91008 33.878858,0.91008 L32.1199822,0.91008 L32.1199822,2.72904 L32.1202249,2.72904 Z" id="Shape"></path>
                    <polygon id="Path" points="38.2537278 5.80032 38.2537278 0.9516 36.4227988 0.9516 36.4227988 0.30288 40.8275089 0.30288 40.8275089 0.9516 38.9890592 0.9516 38.9890592 5.80032"></polygon>
                </g>
            </g>
        </g>
    </g>
</svg>