<?xml version="1.0" encoding="UTF-8"?>

<svg version="1.1" width="512px" height="512px" viewBox="0 0 30.0 30.0" xmlns="http://www.w3.org/2000/svg" xmlns:xlink="http://www.w3.org/1999/xlink">

    <defs>
    <clipPath id="i0"><path d="M1650,0 L1650,1288 L0,1288 L0,0 L1650,0 Z"></path></clipPath>
    <clipPath id="i1"><path d="M16.5103433,1.91493717 C18.0497438,0.375535232 20.5095253,-1.1148564 22.8122616,1.18784963 C25.1148356,3.49023945 23.6244054,5.95007843 22.0850049,7.4896263 L7.54254694,22.0317825 C6.00347075,23.5711682 3.66467166,25.1827114 1.24108271,22.7586268 C-1.18249813,20.3354341 0.428760517,17.9966412 1.96816102,16.4574177 Z"></path></clipPath>
    <clipPath id="i2"><path d="M3.50086265,0 C5.82206886,0 6.69634686,1.52203264 7,3.20561325 C6.79888981,3.39539235 6.59897982,3.59662051 6.40214538,3.81346851 L3.50221289,7 L0.653214313,3.86958457 C0.433800915,3.62850313 0.217163004,3.42162875 0,3.21524893 C0.302077864,1.52800857 1.17523067,0 3.50086265,0 Z"></path></clipPath>
    <clipPath id="i3"><path d="M3.49992484,0 L6.40368923,3.15050557 C6.60045525,3.36390429 6.80030278,3.54672429 7,3.73313219 C6.67493773,5.43648945 5.75025769,7 3.4987223,7 C1.2530493,7 0.327166724,5.44480686 0,3.746913 C0.21465384,3.54509343 0.430284745,3.33022692 0.646892716,3.09505615 L3.49992484,0 Z"></path></clipPath>
    <clipPath id="i4"><path d="M11,0 L10.9686681,0.0323296623 C10.7212028,0.287682615 9.04635971,2.01603505 7.32207151,3.79854934 L6.89076677,4.2444852 C5.0960167,6.10041044 3.37221136,7.88681029 3.27680156,8 C1.56840071,7.63686394 0,6.60290921 0,4.08507063 C0,0.710644331 2.81741202,0 5.01271019,0 L11,0 Z"></path></clipPath>
    <clipPath id="i5"><path d="M7.78635482,0 C9.47282425,0.337922928 11,1.31575854 11,3.91822685 C11,7.46746705 8.16081449,8 5.94825558,8 L0,8 C0,8 1.97118502,5.98253634 3.93042178,3.97322406 L4.36480502,3.52766769 C6.09510302,1.7525653 7.69989225,0.10245801 7.78635482,0 Z"></path></clipPath>
    <clipPath id="i6"><path d="M1.16764519,1.21038413 C3.44997597,-1.15332435 5.65217608,0.418277253 7.10201063,1.9195117 L10,4.92120568 L9.00124884,5.95556092 L8.89008522,5.95589931 C8.86597401,5.9559735 8.83814017,5.95605953 8.80678097,5.95615709 L8.57789964,5.95687788 C7.90782642,5.95901177 6.53331968,5.9635841 5.12016931,5.96945029 L4.55442633,5.97186306 C2.67226757,5.98011754 0.879225903,5.99040089 0.753470009,6 C-0.134235839,4.63053297 -0.505959705,2.9436665 1.16764519,1.21038413 Z"></path></clipPath>
    <clipPath id="i7"><path d="M9.23428486,0 C10.1283315,1.40891917 10.4994582,3.16781608 8.88223729,4.84239909 C6.71500406,7.08639721 4.39956436,5.63417531 2.9505448,4.13367244 L0,1.07885437 L1.00088964,0.0425125358 L1.11161644,0.04221258 C1.13563364,0.0421466984 1.16335933,0.0420702241 1.19459726,0.0419834156 L1.42260163,0.0413406206 C2.09012955,0.0394339415 3.45959715,0.0353183378 4.86865327,0.0298659299 L5.43281709,0.0276157378 C7.30993434,0.0198912249 9.10042944,0.00999689612 9.23428486,0 Z"></path></clipPath></defs><g transform="translate(-1416.0 -201.0)"><g clip-path="url(#i0)"><g transform="translate(1416.0 201.0)"><g transform="translate(3.0 3.0)"><g clip-path="url(#i1)"><polygon points="0,6.66133815e-16 24,6.66133815e-16 24,24 0,24 0,6.66133815e-16" stroke="none" fill="#41B591"></polygon></g></g><g transform="translate(11.0 0.0)"><g clip-path="url(#i2)"><polygon points="0,0 7,0 7,7 0,7 0,0" stroke="none" fill="#41B591"></polygon></g></g><g transform="translate(11.0 23.0)"><g clip-path="url(#i3)"><polygon points="0,0 7,0 7,7 0,7 0,0" stroke="none" fill="#41B591"></polygon></g></g><g transform="translate(0.0 11.0)"><g clip-path="url(#i4)"><polygon points="0,0 11,0 11,8 0,8 0,0" stroke="none" fill="#41B591"></polygon></g></g><g transform="translate(19.0 11.0)"><g clip-path="url(#i5)"><polygon points="0,0 11,0 11,8 0,8 0,0" stroke="none" fill="#41B591"></polygon></g></g><g transform="translate(3.0 3.0)"><g clip-path="url(#i6)"><polygon points="0,4.4408921e-16 10,4.4408921e-16 10,6 0,6 0,4.4408921e-16" stroke="none" fill="#41B591"></polygon></g></g><g transform="translate(16.0 21.0)"><g clip-path="url(#i7)"><polygon points="0,0 10,0 10,6 0,6 0,0" stroke="none" fill="#41B591"></polygon></g></g></g></g></g></svg>