<?xml version="1.0" encoding="UTF-8"?>
<svg width="700pt" height="700pt" version="1.1" viewBox="0 0 700 700" xmlns="http://www.w3.org/2000/svg">
 <path d="m378 0v56h-224c-15.465 0-28 12.535-28 28v392c0 15.465 12.535 28 28 28h392c15.465 0 28-12.535 28-28v-224h56v224c0 46.391-37.609 84-84 84h-392c-46.391 0-84-37.609-84-84v-392c0-46.391 37.609-84 84-84zm224 0 0.54297 0.0039062c0.65234 0.015625 1.3047 0.050781 1.957 0.10547l-2.5-0.10938c1.418 0 2.8086 0.10547 4.1719 0.30859 0.47656 0.074218 0.96094 0.16016 1.4492 0.25781 0.61719 0.125 1.2227 0.26953 1.8242 0.43359 0.4375 0.12109 0.86719 0.25391 1.293 0.39453 0.55078 0.17578 1.1055 0.37891 1.6523 0.59766 0.49609 0.19922 0.98047 0.40625 1.4609 0.62891 0.57813 0.27344 1.1484 0.56641 1.707 0.875 0.33984 0.1875 0.68359 0.38672 1.0195 0.58984 0.71875 0.44141 1.4141 0.91016 2.0859 1.4102 1.0977 0.8125 2.1445 1.7148 3.1367 2.7031l-2.5312-2.2422c1.7656 1.3867 3.3633 2.9805 4.75 4.7461 0.16016 0.20312 0.32422 0.41406 0.48438 0.62891 0.5 0.67578 0.96875 1.3711 1.4062 2.0898 0.20703 0.33594 0.40625 0.67969 0.59766 1.0234 0.30469 0.55469 0.59766 1.125 0.87109 1.707 0.22266 0.47656 0.42969 0.96094 0.625 1.4492 0.22266 0.55469 0.42578 1.1094 0.60938 1.668 0.13281 0.41797 0.26562 0.84766 0.38281 1.2812 0.16797 0.60547 0.3125 1.2109 0.4375 1.8281 0.097656 0.48828 0.18359 0.97266 0.25781 1.4648 0.085938 0.55859 0.15234 1.1367 0.20312 1.7188 0.046875 0.52734 0.074219 1.0312 0.089844 1.5352 0.011719 0.28125 0.015625 0.58984 0.015625 0.90234v140h-56v-72.406l-204.2 204.21c-10.094 10.09-25.977 10.867-36.961 2.3281l-2.6406-2.3281c-10.934-10.938-10.934-28.664 0-39.602l204.15-204.2h-72.352v-56z" fill="#FFF"/>
</svg>
