<?xml version="1.0" encoding="UTF-8"?>
<svg width="61px" height="52px" viewBox="0 0 61 52" version="1.1" xmlns="http://www.w3.org/2000/svg" xmlns:xlink="http://www.w3.org/1999/xlink">
    <!-- Generator: Sketch 63.1 (92452) - https://sketch.com -->
    <title>quote</title>
    <desc>Created with Sketch.</desc>
    <g id="Page-1" stroke="none" stroke-width="1" fill="none" fill-rule="evenodd" opacity="0.29813058">
        <g id="Home" transform="translate(-101.000000, -912.000000)" fill="#41B591" fill-rule="nonzero">
            <g id="Group-8" transform="translate(101.000000, 912.000000)">
                <g id="quote">
                    <path d="M18.9444847,23.5663577 C17.4866301,23.1248273 16.0287755,22.9007963 14.610658,22.9007963 C12.4207716,22.9007963 10.5934862,23.4272364 9.17661049,24.0718969 C10.5425731,18.8114151 13.8239877,9.7345693 20.3607395,8.71238727 C20.9661093,8.61768031 21.4622021,8.15720853 21.6273594,7.5373678 L23.0560321,2.16193132 C23.1764851,1.70733791 23.1050825,1.22074007 22.8585884,0.826236592 C22.6120942,0.431733112 22.2159651,0.168513076 21.7720272,0.104504233 C21.2895941,0.0352701786 20.7978476,0 20.3104473,0 C12.4642341,0 4.69376967,8.6150677 1.41483859,20.9504861 C-0.509926855,28.1874042 -1.07431776,39.0676012 3.66681417,45.9158942 C6.31988603,49.7479338 10.1905273,51.7942573 15.1713235,51.9986937 C15.191813,51.9993468 15.2116815,52 15.2321709,52 C21.3777608,52 26.8273306,47.6460924 28.4851124,41.4130681 C29.4754353,37.686839 29.0277721,33.7790338 27.2234597,30.4068129 C25.438395,27.0724747 22.498471,24.6420981 18.9444847,23.5663577 Z" id="Path"></path>
                    <path d="M59.2232397,30.4070841 C57.4381527,27.0721346 54.4981921,24.6417886 50.9441615,23.5660617 C49.4862887,23.1245368 48.028416,22.9005087 46.6109017,22.9005087 C44.4209881,22.9005087 42.593059,23.4269422 41.1761656,24.0715945 C42.5421452,18.8111788 45.8236007,9.73444703 52.3610549,8.71227784 C52.9664322,8.61757207 53.4619103,8.15710607 53.6276905,7.53727313 L55.056381,2.16190416 C55.1768356,1.70731646 55.1054321,1.22072474 54.8589348,0.826226214 C54.6130585,0.43172769 54.2169244,0.168510959 53.7723602,0.10450292 C53.2905419,0.0352697356 52.7987893,0 52.310762,0 C44.464451,0 36.6938899,8.61495949 33.414297,20.9502229 C31.4901285,28.1870502 30.9257306,39.0671105 35.6675425,45.9166238 C38.3200265,49.7479621 42.1913368,51.794913 47.1715742,51.9986937 C47.1920639,51.9993469 47.2119327,52 47.2330433,52 C53.3780888,52 58.8283474,47.6461471 60.4861499,41.413201 C61.4752433,37.6870188 61.0269536,33.7786096 59.2232397,30.4070841 Z" id="Path"></path>
                </g>
            </g>
        </g>
    </g>
</svg>