<?xml version="1.0" encoding="UTF-8"?>
<svg width="23px" height="22px" viewBox="0 0 23 22" version="1.1" xmlns="http://www.w3.org/2000/svg" xmlns:xlink="http://www.w3.org/1999/xlink">
    <!-- Generator: Sketch 63.1 (92452) - https://sketch.com -->
    <title>send</title>
    <desc>Created with Sketch.</desc>
    <g id="Page-1" stroke="none" stroke-width="1" fill="none" fill-rule="evenodd">
        <g id="Home" transform="translate(-665.000000, -5193.000000)" fill="#41B591" fill-rule="nonzero">
            <g id="send" transform="translate(665.000000, 5193.000000)">
                <path d="M9,17 L9,21.3040089 C9,21.6046771 9.2045734,21.8710097 9.50749939,21.9656644 C9.58323088,21.9888641 9.66092943,22 9.73764446,22 C9.96778953,22 10.1900664,21.8979213 10.3316941,21.7160356 L13,18.2899035 L9,17 Z" id="Path"></path>
                <path d="M22.6980944,0.132133595 C22.4776784,-0.0227157193 22.1882627,-0.0436156267 21.9486801,0.0808338219 L0.386249712,11.2432844 C0.131333867,11.3753338 -0.0191239803,11.6451326 0.00195928499,11.9291813 C0.0240008805,12.2141801 0.214708598,12.457379 0.485916057,12.5495286 L6.48027171,14.5806196 L19.2461888,3.76016752 L9.36772073,15.5581652 L19.4138966,18.9620002 C19.4886464,18.9867001 19.5672295,19 19.6458126,19 C19.7761455,19 19.9055201,18.9648502 20.0195614,18.8964505 C20.2016441,18.7862509 20.3252687,18.6010018 20.3568936,18.3929527 L22.9923018,0.818030556 C23.0315933,0.552031734 22.9185103,0.287932904 22.6980944,0.132133595 Z" id="Path"></path>
            </g>
        </g>
    </g>
</svg>