<?xml version="1.0" encoding="UTF-8"?>
<svg width="641px" height="633px" viewBox="0 0 641 633" version="1.1" xmlns="http://www.w3.org/2000/svg" xmlns:xlink="http://www.w3.org/1999/xlink">
    <!-- Generator: Sketch 63.1 (92452) - https://sketch.com -->
    <title>blob-shape</title>
    <desc>Created with Sketch.</desc>
    <g id="Page-1" stroke="none" stroke-width="1" fill="none" fill-rule="evenodd">
        <g id="Home" transform="translate(-799.000000, -1216.000000)" fill="#DFFBF2" fill-rule="nonzero">
            <g id="blob-shape" transform="translate(799.000000, 1216.000000)">
                <path d="M718.884647,68.4343118 C799.52867,120.994634 860.988652,201.408781 862.942582,280.878729 C865.074142,360.348678 807.52202,438.717063 746.239668,498.516233 C684.779685,558.158036 619.411843,599.073257 548.18221,618.744037 C477.130208,638.414816 400.394045,636.99852 327.743372,617.170374 C255.0927,597.342229 186.527517,559.2596 119.561005,499.46043 C52.5944923,439.818627 -12.7733501,358.302917 2.14757041,290.47807 C16.8908609,222.653222 112.100544,168.361871 198.073468,116.745746 C284.046391,65.1296209 360.960184,16.1887217 449.419927,3.91415535 C538.0573,-8.360411 638.062994,16.0313555 718.884647,68.4343118 Z" id="Path"></path>
            </g>
        </g>
    </g>
</svg>