<?xml version="1.0" encoding="UTF-8"?>
<svg width="1072px" height="322px" viewBox="0 0 1072 322" version="1.1" xmlns="http://www.w3.org/2000/svg" xmlns:xlink="http://www.w3.org/1999/xlink">
    <title>Group 2</title>
    <defs>
        <linearGradient x1="50%" y1="53.921169%" x2="50%" y2="100%" id="linearGradient-1">
            <stop stop-color="#2FAE9A" offset="0%"></stop>
            <stop stop-color="#41B591" offset="100%"></stop>
        </linearGradient>
        <rect id="path-2" x="221.679485" y="-114" width="756" height="1115" rx="134"></rect>
    </defs>
    <g id="Page-1" stroke="none" stroke-width="1" fill="none" fill-rule="evenodd">
        <g id="Portfolio-v2" transform="translate(-368.000000, 0.000000)">
            <g id="Group-2" transform="translate(368.000000, -601.000000)">
                <g id="blob-shape-copy-6" transform="translate(0.000000, 290.000000)" fill="#DFFBF2" fill-rule="nonzero">
                    <path d="M718.884647,68.4343118 C799.52867,120.994634 860.988652,201.408781 862.942582,280.878729 C865.074142,360.348678 807.52202,438.717063 746.239668,498.516233 C684.779685,558.158036 619.411843,599.073257 548.18221,618.744037 C477.130208,638.414816 400.394045,636.99852 327.743372,617.170374 C255.0927,597.342229 186.527517,559.2596 119.561005,499.46043 C52.5944923,439.818627 -12.7733501,358.302917 2.14757041,290.47807 C16.8908609,222.653222 112.100544,168.361871 198.073468,116.745746 C284.046391,65.1296209 360.960184,16.1887217 449.419927,3.91415535 C538.0573,-8.360411 638.062994,16.0313555 718.884647,68.4343118 Z" id="Path"></path>
                </g>
                <g id="Rectangle-Copy-6" transform="translate(177.000000, 0.000000)">
                    <mask id="mask-3" fill="white">
                        <use xlink:href="#path-2" transform="translate(599.679485, 443.500000) rotate(83.000000) translate(-599.679485, -443.500000) "></use>
                    </mask>
                    <use id="Mask" fill="url(#linearGradient-1)" transform="translate(599.679485, 443.500000) rotate(83.000000) translate(-599.679485, -443.500000) " xlink:href="#path-2"></use>
                </g>
            </g>
        </g>
    </g>
</svg>