<?xml version="1.0" encoding="UTF-8"?>
<svg width="663px" height="548px" viewBox="0 0 663 548" version="1.1" xmlns="http://www.w3.org/2000/svg" xmlns:xlink="http://www.w3.org/1999/xlink">
    <!-- Generator: Sketch 63.1 (92452) - https://sketch.com -->
    <title>blob-shape</title>
    <desc>Created with Sketch.</desc>
    <g id="Page-1" stroke="none" stroke-width="1" fill="none" fill-rule="evenodd" opacity="0.201334635">
        <g id="Home" transform="translate(0.000000, -3097.000000)" fill="#000000" fill-rule="nonzero">
            <g id="blob-shape" transform="translate(-65.000000, 3097.000000)">
                <path d="M606.428763,58.6531762 C674.457557,104.227633 726.303289,173.953823 727.951564,242.86131 C729.749682,311.768798 681.200499,379.721132 629.50461,431.57231 C577.658877,483.287038 522.516595,518.76416 462.429489,535.820469 C402.492226,552.876778 337.759982,551.648724 276.474131,534.455964 C215.18828,517.263205 157.348821,484.242192 100.857951,432.391013 C44.3670804,380.676285 -10.7752015,309.994942 1.8116237,251.184789 C14.2486058,192.374637 94.5645381,145.299225 167.088626,100.54347 C239.612714,55.7877163 304.494801,13.3516202 379.116694,2.70848355 C453.888429,-7.9346531 538.250127,13.2151697 606.428763,58.6531762 Z" id="Path"></path>
            </g>
        </g>
    </g>
</svg>