<?xml version="1.0" encoding="UTF-8"?>
<svg width="139px" height="127px" viewBox="0 0 139 127" version="1.1" xmlns="http://www.w3.org/2000/svg" xmlns:xlink="http://www.w3.org/1999/xlink">
    <!-- Generator: Sketch 63.1 (92452) - https://sketch.com -->
    <title>blob-shape copy 4</title>
    <desc>Created with Sketch.</desc>
    <g id="Page-1" stroke="none" stroke-width="1" fill="none" fill-rule="evenodd">
        <g id="Home" transform="translate(-912.000000, -4323.000000)" fill="#DFFBF2" fill-rule="nonzero">
            <g id="blob-shape-copy-4" transform="translate(984.500000, 4389.057120) rotate(226.000000) translate(-984.500000, -4389.057120) translate(914.000000, 4318.557120)">
                <path d="M117.453923,15.0914194 C130.629829,26.8176939 140.671379,44.7581917 140.990619,62.4880379 C141.338881,80.2178841 131.935811,97.70197 121.923283,111.04324 C111.881733,124.349402 101.201703,133.47764 89.5639533,137.866216 C77.9552251,142.254791 65.4177988,141.938814 53.5478743,137.51513 C41.6779498,133.091445 30.4755271,124.595162 19.5343009,111.253892 C8.59307463,97.9477303 -2.08695524,79.7614722 0.350877668,64.6296629 C2.75968875,49.4978536 18.3153844,37.3853844 32.3619455,25.8697615 C46.4085065,14.3541387 58.9749547,3.43536213 73.4278212,0.696890839 C87.9097095,-2.04158045 104.248994,3.40025352 117.453923,15.0914194 Z" id="Path"></path>
            </g>
        </g>
    </g>
</svg>