<?xml version="1.0" encoding="UTF-8"?>
<svg width="247px" height="7px" viewBox="0 0 247 7" version="1.1" xmlns="http://www.w3.org/2000/svg" xmlns:xlink="http://www.w3.org/1999/xlink">
    <!-- Generator: Sketch 63.1 (92452) - https://sketch.com -->
    <title>Group 3</title>
    <desc>Created with Sketch.</desc>
    <defs>
        <polygon id="path-1" points="0 0.0205479452 247 0.0205479452 247 7.02054795 0 7.02054795"></polygon>
    </defs>
    <g id="Page-1" stroke="none" stroke-width="1" fill="none" fill-rule="evenodd">
        <g id="Home" transform="translate(-344.000000, -1044.000000)">
            <g id="Group-8" transform="translate(101.000000, 912.000000)">
                <g id="Group-3" transform="translate(243.000000, 132.000000)">
                    <mask id="mask-2" fill="white">
                        <use xlink:href="#path-1"></use>
                    </mask>
                    <g id="Clip-2"></g>
                    <path d="M121.161134,0.268878695 C135.683262,0.478761349 150.206237,0.676072906 164.728365,0.901259503 C181.198986,1.15650742 197.667912,1.44618921 214.110552,2.13923922 C222.237754,2.48193824 230.3675,2.83830149 238.46333,3.44881953 C239.79285,3.5493883 241.152895,3.48106712 242.495134,3.52588581 C243.672031,3.56469224 244.818404,3.73358219 245.852852,4.11180822 C247.334148,4.65345851 247.387566,5.41810911 245.974103,6.02097517 C244.672563,6.57628969 243.177701,6.77196154 241.652313,6.89220681 C238.002916,7.17970232 234.360301,6.90915046 230.721078,6.80475571 C221.556884,6.54130925 212.407104,6.11935767 203.232735,5.96303881 C182.862583,5.61596724 162.488191,5.75916842 142.117191,5.63564374 C120.930503,5.50719993 99.747207,5.12569448 78.5562796,5.27272165 C65.1983302,5.36563845 51.838685,5.35962619 38.4832794,5.51211905 C29.1639178,5.61760695 19.8471,5.59793045 10.5285864,5.59410446 C8.19090289,5.59301132 5.85152354,5.55639117 3.53079817,5.34377567 C2.5777491,5.25687114 1.65013728,5.10000572 0.827666103,4.76277239 C-0.276310669,4.31021292 -0.278006486,3.71718511 0.835297279,3.2651722 C1.68829316,2.91919377 2.65151713,2.76178178 3.64526581,2.6808895 C9.6204765,2.19717558 15.616037,1.850104 21.6243161,1.59376295 C30.4968299,1.21608348 39.3710395,0.835671174 48.2588156,0.638359617 C69.0469865,0.177055034 89.8377012,-0.15307289 110.641134,0.119118676 C114.146388,0.165030507 117.654185,0.12513094 121.161134,0.12513094 L121.161134,0.268878695 Z" id="Fill-1" fill="#41B591" mask="url(#mask-2)"></path>
                </g>
            </g>
        </g>
    </g>
</svg>